<svg class="animated" id="freepik_stories-marketing" xmlns="http://www.w3.org/2000/svg" viewBox="0 0 500 500" version="1.1" xmlns:xlink="http://www.w3.org/1999/xlink" xmlns:svgjs="http://svgjs.com/svgjs"><style>svg#freepik_stories-marketing:not(.animated) .animable {opacity: 0;}svg#freepik_stories-marketing.animated #freepik--device-2--inject-2 {animation: 1.5s Infinite  linear wind;animation-delay: 0s;}svg#freepik_stories-marketing.animated #freepik--Screen--inject-2 {animation: 1.5s Infinite  linear wind;animation-delay: 0s;}svg#freepik_stories-marketing.animated #freepik--device-1--inject-2 {animation: 1.5s Infinite  linear floating;animation-delay: 0s;}svg#freepik_stories-marketing.animated #freepik--Icons--inject-2 {animation: 1.5s Infinite  linear heartbeat;animation-delay: 0s;}svg#freepik_stories-marketing.animated #freepik--Megaphone--inject-2 {animation: 1.5s Infinite  linear wind;animation-delay: 0s;}svg#freepik_stories-marketing.animated #freepik--speech-bubbles--inject-2 {animation: 1.5s Infinite  linear heartbeat;animation-delay: 0s;}            @keyframes wind {                0% {                    transform: rotate( 0deg );                }                25% {                    transform: rotate( 1deg );                }                75% {                    transform: rotate( -1deg );                }            }                    @keyframes floating {                0% {                    opacity: 1;                    transform: translateY(0px);                }                50% {                    transform: translateY(-10px);                }                100% {                    opacity: 1;                    transform: translateY(0px);                }            }                    @keyframes heartbeat {                0% {                    transform: scale(1);                }                10% {                    transform: scale(1.1);                }                30% {                    transform: scale(1);                }                40% {                    transform: scale(1);                }                50% {                    transform: scale(1.1);                }                60% {                    transform: scale(1);                }                100% {                    transform: scale(1);                }            }        .animator-hidden { display: none; }</style><g id="freepik--Floor--inject-2" class="animable animator-hidden" style="transform-origin: 250.004px 346.658px;"><path d="M414.07,251.3c-91.21-52.66-238.6-52.66-329.21,0s-90.14,138,1.06,190.7,238.61,52.66,329.23,0S505.28,304,414.07,251.3Z" style="fill: rgb(245, 245, 245); transform-origin: 250.004px 346.658px;" id="el3zqwjz6h45w" class="animable"></path></g><g id="freepik--Shadows--inject-2" class="animable animator-hidden" style="transform-origin: 249.942px 342.843px;"><path d="M206.62,417l56.71,32.74a20,20,0,0,0,20.06,0l45.28-26.34a5,5,0,0,0,0-8.66L269.6,380.63Z" style="fill: rgb(224, 224, 224); transform-origin: 268.895px 416.533px;" id="elh6ijd5enbc" class="animable"></path><path d="M59.07,354.85l119.47,68.94a16.33,16.33,0,0,0,16.35,0L385.73,313.55a5.3,5.3,0,0,0,0-9.19l-123-71.11L59.07,350.83A2.32,2.32,0,0,0,59.07,354.85Z" style="fill: rgb(224, 224, 224); transform-origin: 223.149px 329.617px;" id="el57w8pdlyxf2" class="animable"></path><path d="M425.53,366.59c-21.84-12.61-57.13-12.61-78.82,0s-21.58,33,.25,45.65,57.13,12.61,78.82,0S447.36,379.19,425.53,366.59Z" style="fill: rgb(224, 224, 224); transform-origin: 386.245px 389.423px;" id="el8u16jy3xhv9" class="animable"></path><path d="M140.4,386.07l9,5.2L108.32,415a4,4,0,0,1-4,0l-4-2.31a2,2,0,0,1,0-3.47Z" style="fill: rgb(224, 224, 224); transform-origin: 124.357px 400.803px;" id="elfsm8ncwb5hi" class="animable"></path></g><g id="freepik--device-2--inject-2" class="animable animator-active" style="transform-origin: 215.921px 241.254px;"><path d="M58,337.05c-.14-1.43.73-2.89,2.63-4l187.74-108.4a14,14,0,0,1,12.69,0l119.19,69.26a4.54,4.54,0,0,1,2.59,3.52s0,0,0,.06v11.32c.06,1.38-.81,2.77-2.64,3.82L192.43,421a14,14,0,0,1-12.69,0L60.56,351.78a4.52,4.52,0,0,1-2.6-3.51h0V337.06Z" style="fill: rgb(69, 90, 100); transform-origin: 220.401px 322.825px;" id="el57iusjhnan7" class="animable"></path><g id="el072de6x2awvs"><path d="M380.17,301.28,192.43,409.68a14,14,0,0,1-12.69,0L60.56,340.42A4.63,4.63,0,0,1,58,337.05c-.14-1.43.73-2.89,2.63-4l187.74-108.4a14,14,0,0,1,12.69,0l119.19,69.26a4.54,4.54,0,0,1,2.59,3.52s0,0,0,.06v.19C382.77,299,381.89,300.29,380.17,301.28Z" style="fill: rgb(255, 255, 255); opacity: 0.3; transform-origin: 220.413px 317.165px;" class="animable" id="elqzbuxjgrnwa"></path></g><path d="M252.83,258.31a.83.83,0,0,0,0,1.56l7.78,4.52a3,3,0,0,0,2.68,0l23.49-13.56c.74-.43.75-1.12,0-1.55L279,244.75a2.92,2.92,0,0,0-2.67,0Z" style="fill: rgb(55, 71, 79); transform-origin: 269.811px 254.566px;" id="el85wun6nxnym" class="animable"></path><path d="M255.81,242.6a.81.81,0,0,0,0,1.54l7.78,4.52a2.92,2.92,0,0,0,2.67,0l8.44-4.86a.82.82,0,0,0,0-1.55l-7.78-4.52a3,3,0,0,0-2.68,0Z" style="fill: rgb(55, 71, 79); transform-origin: 265.252px 243.199px;" id="elsaev15r5saj" class="animable"></path><path d="M242.72,250.15c-.74.43-.75,1.12,0,1.55l7.78,4.52a2.92,2.92,0,0,0,2.67,0l8.44-4.87a.82.82,0,0,0,0-1.55l-7.78-4.52a3,3,0,0,0-2.68,0Z" style="fill: rgb(55, 71, 79); transform-origin: 252.162px 250.754px;" id="elfn8yu7uwhni" class="animable"></path><path d="M190.36,280.38a.82.82,0,0,0,0,1.55l7.77,4.52a3,3,0,0,0,2.68,0l8.43-4.87c.74-.43.75-1.12,0-1.55l-7.78-4.52a2.92,2.92,0,0,0-2.67,0Z" style="fill: rgb(55, 71, 79); transform-origin: 199.803px 280.976px;" id="elu316e1bxam" class="animable"></path><path d="M177.28,287.94a.81.81,0,0,0,0,1.54l7.78,4.52a2.92,2.92,0,0,0,2.67,0l8.44-4.86a.82.82,0,0,0,0-1.55l-7.77-4.52a3,3,0,0,0-2.68,0Z" style="fill: rgb(55, 71, 79); transform-origin: 186.722px 288.539px;" id="elcyfmkvrydtb" class="animable"></path><path d="M168.47,282.82a.81.81,0,0,0,0,1.54L173,287a3,3,0,0,0,2.68,0l8.43-4.87a.82.82,0,0,0,0-1.55l-4.5-2.61a3,3,0,0,0-2.68,0Z" style="fill: rgb(55, 71, 79); transform-origin: 176.287px 282.485px;" id="elb4y5fls5z4" class="animable"></path><path d="M181.55,275.26a.82.82,0,0,0,0,1.55l4.5,2.62a3,3,0,0,0,2.67,0l8.43-4.87a.82.82,0,0,0,0-1.55l-4.5-2.62a2.92,2.92,0,0,0-2.67,0Z" style="fill: rgb(55, 71, 79); transform-origin: 189.35px 274.905px;" id="el1mtym6b3ajk" class="animable"></path><path d="M194.65,267.7a.82.82,0,0,0,0,1.55l4.5,2.62a2.92,2.92,0,0,0,2.67,0l8.43-4.87a.82.82,0,0,0,0-1.55l-4.5-2.62a3,3,0,0,0-2.67,0Z" style="fill: rgb(55, 71, 79); transform-origin: 202.45px 267.355px;" id="el1w8x0meiuzo" class="animable"></path><path d="M219.44,291.59a.82.82,0,0,0,0,1.55l7.78,4.52a2.92,2.92,0,0,0,2.67,0l8.44-4.87a.81.81,0,0,0,0-1.54l-7.77-4.52a3,3,0,0,0-2.68,0Z" style="fill: rgb(55, 71, 79); transform-origin: 228.888px 292.199px;" id="elkepbnlgfl7" class="animable"></path><path d="M201.11,288.18a.82.82,0,0,0,0,1.55l7.78,4.52a2.92,2.92,0,0,0,2.67,0l8.44-4.87a.82.82,0,0,0,0-1.55l-7.78-4.52a3,3,0,0,0-2.68,0Z" style="fill: rgb(55, 71, 79); transform-origin: 210.555px 288.784px;" id="elnydplx0fjg" class="animable"></path><path d="M76.85,335.71c-.74.43-.75,1.12,0,1.55l4.5,2.62a2.92,2.92,0,0,0,2.67,0L92.45,335a.82.82,0,0,0,0-1.55L88,330.84a3,3,0,0,0-2.68,0Z" style="fill: rgb(55, 71, 79); transform-origin: 84.6467px 335.364px;" id="elsuenv12l5j8" class="animable"></path><path d="M266.06,294c-.74.43-.75,1.12,0,1.55l7.78,4.52a2.92,2.92,0,0,0,2.67,0l8.43-4.87c.74-.43.75-1.12,0-1.55l-7.77-4.52a3,3,0,0,0-2.68,0Z" style="fill: rgb(55, 71, 79); transform-origin: 275.5px 294.604px;" id="el8tz2gmfl8ga" class="animable"></path><path d="M187.53,339.38a.82.82,0,0,0,0,1.55l7.78,4.52a2.92,2.92,0,0,0,2.67,0l8.43-4.87c.74-.43.75-1.12,0-1.55l-7.78-4.52a2.92,2.92,0,0,0-2.67,0Z" style="fill: rgb(55, 71, 79); transform-origin: 196.973px 339.98px;" id="elymkicmvaym" class="animable"></path><path d="M155.38,290.37c-.74.43-.75,1.12,0,1.55l4.5,2.62a3,3,0,0,0,2.68,0l8.43-4.87c.74-.43.75-1.12,0-1.55l-4.5-2.62a3,3,0,0,0-2.68,0Z" style="fill: rgb(55, 71, 79); transform-origin: 163.185px 290.02px;" id="eliesyapt1z6m" class="animable"></path><path d="M89.94,328.16a.81.81,0,0,0,0,1.54l4.5,2.62a3,3,0,0,0,2.68,0l8.43-4.87a.82.82,0,0,0,0-1.55l-4.5-2.61a3,3,0,0,0-2.68,0Z" style="fill: rgb(55, 71, 79); transform-origin: 97.7417px 327.805px;" id="elhk3ryzpe73g" class="animable"></path><path d="M227,273.26a.82.82,0,0,0,0,1.55l7.78,4.52a3,3,0,0,0,2.68,0l8.43-4.87c.74-.43.75-1.12,0-1.55l-7.78-4.52a3,3,0,0,0-2.68,0Z" style="fill: rgb(55, 71, 79); transform-origin: 236.448px 273.86px;" id="eliy6l9e27etp" class="animable"></path><path d="M214,280.72a.82.82,0,0,0,0,1.55l7.78,4.52a3,3,0,0,0,2.68,0l8.43-4.87a.82.82,0,0,0,0-1.55l-7.78-4.52a3,3,0,0,0-2.68,0Z" style="fill: rgb(55, 71, 79); transform-origin: 223.445px 281.32px;" id="el1sfmksvbhne" class="animable"></path><path d="M232.14,284.26a.82.82,0,0,0,0,1.56l7.78,4.52a3,3,0,0,0,2.67,0l8.43-4.87c.74-.43.75-1.12,0-1.55l-7.78-4.52a3,3,0,0,0-2.69,0Z" style="fill: rgb(55, 71, 79); transform-origin: 241.576px 284.868px;" id="eltwt62tbk8ah" class="animable"></path><path d="M305.32,271.37a.82.82,0,0,0,0,1.55l7.77,4.52a3,3,0,0,0,2.68,0l8.43-4.87c.74-.43.75-1.12,0-1.55l-7.78-4.52a3,3,0,0,0-2.67,0Z" style="fill: rgb(55, 71, 79); transform-origin: 314.763px 271.971px;" id="elvroascj0by" class="animable"></path><path d="M292.23,278.93a.82.82,0,0,0,0,1.55L300,285a3,3,0,0,0,2.68,0l8.43-4.87c.74-.43.75-1.12,0-1.55l-7.78-4.52a2.92,2.92,0,0,0-2.67,0Z" style="fill: rgb(55, 71, 79); transform-origin: 301.673px 279.526px;" id="el6lhg5r1rs2h" class="animable"></path><path d="M270.62,262a.83.83,0,0,0,0,1.56l7.78,4.52a3,3,0,0,0,2.67,0l17.79-10.28a.81.81,0,0,0,0-1.54l-7.78-4.52a3,3,0,0,0-2.68,0Z" style="fill: rgb(55, 71, 79); transform-origin: 284.746px 259.909px;" id="eltp27we48heb" class="animable"></path><path d="M239.87,265.8a.82.82,0,0,0,0,1.55l7.77,4.52a3,3,0,0,0,2.68,0l8.43-4.87c.74-.43.75-1.12,0-1.55L251,260.93a3,3,0,0,0-2.68,0Z" style="fill: rgb(55, 71, 79); transform-origin: 249.313px 266.4px;" id="el7fai2c6dk9h" class="animable"></path><path d="M174.44,346.94a.82.82,0,0,0,0,1.55l7.78,4.52a3,3,0,0,0,2.67,0l8.43-4.87a.82.82,0,0,0,0-1.55l-7.78-4.52a2.92,2.92,0,0,0-2.67,0Z" style="fill: rgb(55, 71, 79); transform-origin: 183.88px 347.535px;" id="eledd2quqtvmo" class="animable"></path><path d="M166.48,358.13c-.74.43-.75,1.12,0,1.55l2.08,1.21a3,3,0,0,0,2.68,0l9.16-5.29a.82.82,0,0,0,0-1.55l-2.08-1.21a3,3,0,0,0-2.68,0Z" style="fill: rgb(55, 71, 79); transform-origin: 173.437px 356.865px;" id="elx0xygeyfnpq" class="animable"></path><path d="M149.68,346.55a.82.82,0,0,0,0,1.55l7.78,4.52a2.92,2.92,0,0,0,2.67,0l8.43-4.87a.82.82,0,0,0,0-1.55l-7.78-4.52a3,3,0,0,0-2.68,0Z" style="fill: rgb(55, 71, 79); transform-origin: 159.12px 347.154px;" id="el85fz2r6m4us" class="animable"></path><path d="M109.83,354.88a.82.82,0,0,0,0,1.55L117.6,361a3,3,0,0,0,2.68,0l16.52-9.54a.82.82,0,0,0,0-1.55L129,345.34a2.92,2.92,0,0,0-2.67,0Z" style="fill: rgb(55, 71, 79); transform-origin: 123.315px 353.166px;" id="elw0supxxqet" class="animable"></path><path d="M122.5,362.24a.82.82,0,0,0,0,1.55l7.78,4.52a3,3,0,0,0,2.68,0l22.92-13.23c.74-.43.75-1.12,0-1.55L148.1,349a3,3,0,0,0-2.68,0Z" style="fill: rgb(55, 71, 79); transform-origin: 139.193px 358.655px;" id="elyefkw04p1n" class="animable"></path><path d="M130.61,342.88a.82.82,0,0,0,0,1.55l7.78,4.52a2.92,2.92,0,0,0,2.67,0l8.44-4.87a.82.82,0,0,0,0-1.55L141.73,338a3,3,0,0,0-2.68,0Z" style="fill: rgb(55, 71, 79); transform-origin: 140.055px 343.479px;" id="elh1mtnhc1c9s" class="animable"></path><path d="M162.37,339.22a.82.82,0,0,0,0,1.55l7.78,4.52a2.92,2.92,0,0,0,2.67,0l8.43-4.87a.82.82,0,0,0,0-1.55l-7.78-4.52a2.92,2.92,0,0,0-2.67,0Z" style="fill: rgb(55, 71, 79); transform-origin: 171.81px 339.82px;" id="elc5k8d9sna1t" class="animable"></path><path d="M143.31,335.55a.82.82,0,0,0,0,1.55l7.78,4.52a2.92,2.92,0,0,0,2.67,0l8.44-4.87a.82.82,0,0,0,0-1.55l-7.78-4.52a3,3,0,0,0-2.68,0Z" style="fill: rgb(55, 71, 79); transform-origin: 152.755px 336.154px;" id="el5p0a9ruqle" class="animable"></path><path d="M175.06,331.89a.83.83,0,0,0,0,1.56l7.77,4.52a3,3,0,0,0,2.68,0l8.43-4.87c.74-.43.75-1.13,0-1.55L186.18,327a3,3,0,0,0-2.69,0Z" style="fill: rgb(55, 71, 79); transform-origin: 184.506px 332.484px;" id="elxnpzx764pr" class="animable"></path><path d="M156,328.23a.82.82,0,0,0,0,1.55l7.78,4.52a3,3,0,0,0,2.67,0l8.43-4.87c.75-.43.76-1.12,0-1.55l-7.78-4.52a3,3,0,0,0-2.69,0Z" style="fill: rgb(55, 71, 79); transform-origin: 165.447px 328.828px;" id="elhftjg6d6t19" class="animable"></path><path d="M238.51,295.26a.82.82,0,0,0,0,1.55l7.78,4.52a2.92,2.92,0,0,0,2.67,0l8.43-4.87a.82.82,0,0,0,0-1.55l-7.78-4.52a3,3,0,0,0-2.68,0Z" style="fill: rgb(55, 71, 79); transform-origin: 247.95px 295.864px;" id="elnki8xegxvre" class="animable"></path><path d="M203.46,272.82a.82.82,0,0,0,0,1.55l7.77,4.52a3,3,0,0,0,2.68,0l8.43-4.87c.74-.43.75-1.12,0-1.55L214.56,268a3,3,0,0,0-2.67,0Z" style="fill: rgb(55, 71, 79); transform-origin: 212.903px 273.446px;" id="elpva2k9cg4s" class="animable"></path><path d="M279.14,286.49a.82.82,0,0,0,0,1.54l7.78,4.52a3,3,0,0,0,2.68,0l8.43-4.87a.81.81,0,0,0,0-1.54l-7.78-4.52a2.92,2.92,0,0,0-2.67,0Z" style="fill: rgb(55, 71, 79); transform-origin: 288.595px 287.081px;" id="el7dbt2d0actu" class="animable"></path><path d="M153.67,365.52a.82.82,0,0,0,0,1.55l2.08,1.21a2.92,2.92,0,0,0,2.67,0l9.17-5.29a.82.82,0,0,0,0-1.55l-2.08-1.21a2.92,2.92,0,0,0-2.67,0Z" style="fill: rgb(55, 71, 79); transform-origin: 160.63px 364.255px;" id="elfmh8kqlho7" class="animable"></path><path d="M140.87,372.92a.82.82,0,0,0,0,1.55l2.08,1.21a3,3,0,0,0,2.67,0l9.17-5.3a.82.82,0,0,0,0-1.55l-2.08-1.21a3,3,0,0,0-2.68,0Z" style="fill: rgb(55, 71, 79); transform-origin: 147.83px 371.649px;" id="elygeq2s9tq4" class="animable"></path><path d="M148,362.21c-.74.43-.75,1.12,0,1.55l2.08,1.21a3,3,0,0,0,2.68,0l9.16-5.29c.74-.43.75-1.12,0-1.55l-2.08-1.21a3,3,0,0,0-2.68,0Z" style="fill: rgb(55, 71, 79); transform-origin: 154.96px 360.945px;" id="elayra73whr1a" class="animable"></path><path d="M273.87,310.87l33.32,19.36a1.69,1.69,0,0,1,0,2.92L251.32,365.4a4.21,4.21,0,0,1-4.22,0L213.78,346a1.68,1.68,0,0,1,0-2.91l55.86-32.26A4.21,4.21,0,0,1,273.87,310.87Z" style="fill: rgb(55, 71, 79); transform-origin: 260.484px 338.123px;" id="ellbm4vqdt4sf" class="animable"></path><g id="el6w87847bkym"><path d="M192.43,409.68l187.74-108.4c1.72-1,2.6-2.28,2.65-3.58v11.13c.06,1.38-.81,2.77-2.64,3.82L192.43,421a12.73,12.73,0,0,1-5.84,1.5V411.17A12.73,12.73,0,0,0,192.43,409.68Z" style="fill: rgb(255, 255, 255); opacity: 0.1; transform-origin: 284.706px 360.1px;" class="animable" id="elqh681cre7t"></path></g><g id="elisdn3yb790d"><path d="M58,337.05a4.63,4.63,0,0,0,2.59,3.37l119.18,69.26a13.13,13.13,0,0,0,6.85,1.49v11.37a13.14,13.14,0,0,1-6.85-1.5L60.56,351.78a4.52,4.52,0,0,1-2.6-3.51h0V337.06Z" style="opacity: 0.2; transform-origin: 122.29px 379.805px;" class="animable" id="ellp5n5qbej99"></path></g><path d="M267.66,366.54V368c0,2,1.42,2.81,3.17,1.8L300.05,353a6.9,6.9,0,0,0,3.14-5.44V346Z" style="fill: rgb(55, 71, 79); transform-origin: 285.425px 358.117px;" id="ell36c4vahdl" class="animable"></path><path d="M56.33,169.35,244.41,60.72a5.61,5.61,0,0,1,5.76.05h0l4,2.62h0a5.61,5.61,0,0,1,2.57,4.74V211.78a14.77,14.77,0,0,1-7.39,12.79L61.24,333.2a5.62,5.62,0,0,1-5.87-.12h0l-3.94-2.6h0A5.61,5.61,0,0,1,49,325.79V182.14A14.78,14.78,0,0,1,56.33,169.35Z" style="fill: rgb(55, 71, 79); transform-origin: 152.87px 196.959px;" id="eld3r31898a2f" class="animable"></path><path d="M244.2,215.72a4.56,4.56,0,0,0,2.27-3.94V76L65.21,180.7a4.56,4.56,0,0,0-2.27,3.93V320.41Z" style="fill: #000000; transform-origin: 154.705px 198.205px;" id="el5ztb8ldv9a" class="animable"></path><g id="elvzfrltcfb7a"><path d="M244.2,215.72a4.56,4.56,0,0,0,2.27-3.94V76L65.21,180.7a4.56,4.56,0,0,0-2.27,3.93V320.41Z" style="opacity: 0.3; transform-origin: 154.705px 198.205px;" class="animable" id="eltaem8x0gqa"></path></g><g id="elvfzd2g8rz"><path d="M244.2,215.72a4.56,4.56,0,0,0,2.27-3.94V76L65.21,180.7a4.56,4.56,0,0,0-2.27,3.93V320.41Z" style="fill: rgb(255, 255, 255); opacity: 0.1; transform-origin: 154.705px 198.205px;" class="animable" id="elz70dd218e6i"></path></g><g id="el3tixgfk631d"><path d="M56.33,169.35,244.41,60.72a5.61,5.61,0,0,1,5.76.05h0l4,2.62h0a5.62,5.62,0,0,0-6-.18L60.1,171.84a14.76,14.76,0,0,0-6.16,6.92l-3.88-2.24A14.81,14.81,0,0,1,56.33,169.35Z" style="fill: rgb(255, 255, 255); opacity: 0.3; transform-origin: 152.115px 119.355px;" class="animable" id="el3bf67jz1y1d"></path></g><g id="ell47bviy61t"><path d="M53.94,178.76a14.76,14.76,0,0,0-1.22,5.87V328.28a5.6,5.6,0,0,0,2.65,4.8h0l-3.94-2.6h0A5.61,5.61,0,0,1,49,325.79V182.14a14.78,14.78,0,0,1,1.11-5.62Z" style="fill: rgb(255, 255, 255); opacity: 0.1; transform-origin: 52.1848px 254.8px;" class="animable" id="el6wnc88jp28i"></path></g><path d="M220.82,252.59c-.74.43-.75,1.12,0,1.55l4.5,2.62a3,3,0,0,0,2.68,0l8.43-4.87c.74-.43.75-1.12,0-1.55l-4.5-2.62a3,3,0,0,0-2.68,0Z" style="fill: rgb(55, 71, 79); transform-origin: 228.625px 252.24px;" id="elutpnx58tu5" class="animable"></path><path d="M229.63,257.71c-.74.43-.75,1.12,0,1.55l7.78,4.52a2.92,2.92,0,0,0,2.67,0l8.44-4.87a.82.82,0,0,0,0-1.55l-7.77-4.52a3,3,0,0,0-2.68,0Z" style="fill: rgb(55, 71, 79); transform-origin: 239.072px 258.314px;" id="elueqn04qe9q" class="animable"></path><path d="M207.74,260.15a.81.81,0,0,0,0,1.54l4.5,2.62a2.92,2.92,0,0,0,2.67,0l8.43-4.87a.82.82,0,0,0,0-1.55l-4.5-2.61a2.92,2.92,0,0,0-2.67,0Z" style="fill: rgb(55, 71, 79); transform-origin: 215.537px 259.795px;" id="elzccs8c6ps1a" class="animable"></path><path d="M216.55,265.27a.81.81,0,0,0,0,1.54l7.78,4.52a2.92,2.92,0,0,0,2.67,0l8.43-4.86c.74-.43.75-1.12,0-1.55l-7.78-4.52a2.92,2.92,0,0,0-2.67,0Z" style="fill: rgb(55, 71, 79); transform-origin: 225.99px 265.865px;" id="elqqutygza8j" class="animable"></path><path d="M247,237.48a.81.81,0,0,0,0,1.54l4.5,2.62a3,3,0,0,0,2.68,0l8.43-4.87a.82.82,0,0,0,0-1.55l-4.5-2.61a3,3,0,0,0-2.68,0Z" style="fill: rgb(55, 71, 79); transform-origin: 254.802px 237.125px;" id="el1fzvgsotp1m" class="animable"></path><path d="M233.91,245c-.74.43-.75,1.12,0,1.55l4.5,2.62a3,3,0,0,0,2.68,0l8.43-4.87c.74-.43.75-1.12,0-1.55l-4.5-2.62a3,3,0,0,0-2.68,0Z" style="fill: rgb(55, 71, 79); transform-origin: 241.715px 244.65px;" id="elealrdj4ncqk" class="animable"></path><path d="M164.19,295.49c-.74.43-.75,1.12,0,1.55l7.78,4.52a2.92,2.92,0,0,0,2.67,0l8.44-4.87a.82.82,0,0,0,0-1.55l-7.77-4.52a3,3,0,0,0-2.68,0Z" style="fill: rgb(55, 71, 79); transform-origin: 173.632px 296.094px;" id="eln2fxn2km94b" class="animable"></path><path d="M188.18,295.64a.82.82,0,0,0,0,1.55l7.78,4.52a3,3,0,0,0,2.67,0l8.44-4.87a.82.82,0,0,0,0-1.55l-7.77-4.52a3,3,0,0,0-2.68,0Z" style="fill: rgb(55, 71, 79); transform-origin: 197.625px 296.239px;" id="ellcurq2pp4i8" class="animable"></path><path d="M142.29,297.93c-.74.43-.75,1.12,0,1.55l4.5,2.62a3,3,0,0,0,2.68,0l8.43-4.87c.74-.43.75-1.12,0-1.55l-4.5-2.62a3,3,0,0,0-2.68,0Z" style="fill: rgb(55, 71, 79); transform-origin: 150.095px 297.58px;" id="elivxx16ae7rf" class="animable"></path><path d="M206.75,298.92a.82.82,0,0,0,0,1.55l7.78,4.52a2.92,2.92,0,0,0,2.67,0l8.43-4.87a.82.82,0,0,0,0-1.55l-7.78-4.52a2.92,2.92,0,0,0-2.67,0Z" style="fill: rgb(55, 71, 79); transform-origin: 216.19px 299.52px;" id="el9egqepoxhov" class="animable"></path><path d="M225.82,302.59a.82.82,0,0,0,0,1.55l7.77,4.52a3,3,0,0,0,2.68,0l8.43-4.87c.74-.43.75-1.12,0-1.55l-7.78-4.52a3,3,0,0,0-2.68,0Z" style="fill: rgb(55, 71, 79); transform-origin: 235.263px 303.19px;" id="elokm7r3piri" class="animable"></path><path d="M151.1,303.05c-.74.43-.75,1.12,0,1.55l7.78,4.52a2.92,2.92,0,0,0,2.67,0l8.44-4.87a.82.82,0,0,0,0-1.55l-7.77-4.52a3,3,0,0,0-2.68,0Z" style="fill: rgb(55, 71, 79); transform-origin: 160.542px 303.654px;" id="elddv8p74s6oj" class="animable"></path><path d="M175.26,303.1a.82.82,0,0,0,0,1.55l7.78,4.52a3,3,0,0,0,2.67,0l8.43-4.87a.82.82,0,0,0,0-1.55l-7.78-4.52a2.92,2.92,0,0,0-2.67,0Z" style="fill: rgb(55, 71, 79); transform-origin: 184.7px 303.695px;" id="elbscazz0v889" class="animable"></path><path d="M129.2,305.49c-.74.42-.74,1.11,0,1.54l4.5,2.62a2.92,2.92,0,0,0,2.67,0l8.43-4.87a.82.82,0,0,0,0-1.55l-4.5-2.61a2.92,2.92,0,0,0-2.67,0Z" style="fill: rgb(55, 71, 79); transform-origin: 136.999px 305.135px;" id="elihxgipxwzy" class="animable"></path><path d="M194.07,306.24a.82.82,0,0,0,0,1.56l7.78,4.52a3,3,0,0,0,2.68,0l8.42-4.86c.75-.43.76-1.12,0-1.55l-7.78-4.52a3,3,0,0,0-2.69,0Z" style="fill: rgb(55, 71, 79); transform-origin: 203.51px 306.854px;" id="elwva32uxmwb" class="animable"></path><path d="M213.13,309.91a.83.83,0,0,0,0,1.56L220.9,316a3,3,0,0,0,2.68,0l8.43-4.86c.74-.43.75-1.12,0-1.55l-7.77-4.52a3,3,0,0,0-2.69,0Z" style="fill: rgb(55, 71, 79); transform-origin: 222.576px 310.534px;" id="elxcbh8ui3cgk" class="animable"></path><path d="M138,310.61a.81.81,0,0,0,0,1.54l7.77,4.52a3,3,0,0,0,2.68,0l8.43-4.86c.74-.43.75-1.12,0-1.55l-7.78-4.52a2.92,2.92,0,0,0-2.67,0Z" style="fill: rgb(55, 71, 79); transform-origin: 147.44px 311.201px;" id="elfzs3q5g9q" class="animable"></path><path d="M162.35,310.55a.82.82,0,0,0,0,1.56l7.78,4.52a3,3,0,0,0,2.68,0l8.42-4.87c.75-.43.76-1.12,0-1.55l-7.78-4.52a3,3,0,0,0-2.69,0Z" style="fill: rgb(55, 71, 79); transform-origin: 171.79px 311.159px;" id="el0kn0hkuh9yt" class="animable"></path><path d="M181.38,313.57a.82.82,0,0,0,0,1.55l7.78,4.52a2.92,2.92,0,0,0,2.67,0l8.44-4.87a.82.82,0,0,0,0-1.55l-7.78-4.52a3,3,0,0,0-2.68,0Z" style="fill: rgb(55, 71, 79); transform-origin: 190.825px 314.174px;" id="el045hk7qryzx1" class="animable"></path><path d="M200.44,317.24a.82.82,0,0,0,0,1.55l7.78,4.52a2.92,2.92,0,0,0,2.67,0l8.43-4.87a.82.82,0,0,0,0-1.55l-7.78-4.52a3,3,0,0,0-2.68,0Z" style="fill: rgb(55, 71, 79); transform-origin: 209.88px 317.844px;" id="ellgtnkwhe8an" class="animable"></path><path d="M149.43,318a.82.82,0,0,0,0,1.56l7.77,4.52a3,3,0,0,0,2.68,0l8.43-4.87c.74-.43.75-1.12,0-1.55l-7.78-4.52a3,3,0,0,0-2.69,0Z" style="fill: rgb(55, 71, 79); transform-origin: 158.866px 318.609px;" id="elwhvxk1d710m" class="animable"></path><path d="M124.92,318.16a.82.82,0,0,0,0,1.55l7.77,4.52a3,3,0,0,0,2.68,0l8.43-4.87c.74-.43.75-1.12,0-1.55L136,313.29a3,3,0,0,0-2.67,0Z" style="fill: rgb(55, 71, 79); transform-origin: 134.363px 318.761px;" id="el1ibbon7ag4k" class="animable"></path><path d="M168.68,320.9a.82.82,0,0,0,0,1.55l7.78,4.52a2.92,2.92,0,0,0,2.67,0l8.44-4.87a.82.82,0,0,0,0-1.55L179.8,316a3,3,0,0,0-2.68,0Z" style="fill: rgb(55, 71, 79); transform-origin: 178.125px 321.489px;" id="elcbg2jkltpx9" class="animable"></path><path d="M187.75,324.57a.82.82,0,0,0,0,1.55l7.78,4.52a2.92,2.92,0,0,0,2.67,0l8.43-4.87c.74-.43.75-1.12,0-1.55l-7.78-4.52a3,3,0,0,0-2.68,0Z" style="fill: rgb(55, 71, 79); transform-origin: 197.193px 325.174px;" id="el9661fr2iae" class="animable"></path><path d="M136.5,325.47a.83.83,0,0,0,0,1.56l7.78,4.52a3,3,0,0,0,2.67,0l8.44-4.87a.82.82,0,0,0,0-1.55l-7.77-4.52a3,3,0,0,0-2.68,0Z" style="fill: rgb(55, 71, 79); transform-origin: 145.948px 326.079px;" id="elegd9iwm6ufk" class="animable"></path><path d="M111.83,325.72a.82.82,0,0,0,0,1.55l7.77,4.52a3,3,0,0,0,2.68,0l8.43-4.87c.74-.43.75-1.12,0-1.55l-7.78-4.52a2.92,2.92,0,0,0-2.67,0Z" style="fill: rgb(55, 71, 79); transform-origin: 121.273px 326.316px;" id="ellhrqe3bwgtf" class="animable"></path><path d="M200.61,331.82a.82.82,0,0,0,0,1.55l7.78,4.52a3,3,0,0,0,2.68,0l60.78-35.09a.82.82,0,0,0,0-1.55l-7.78-4.52a2.92,2.92,0,0,0-2.67,0Z" style="fill: rgb(55, 71, 79); transform-origin: 236.23px 317.306px;" id="el2ygbzn4azih" class="animable"></path><path d="M123.58,332.93a.83.83,0,0,0,0,1.56l7.78,4.52a3,3,0,0,0,2.67,0l8.43-4.87c.74-.43.75-1.12,0-1.55l-7.77-4.52a3,3,0,0,0-2.68,0Z" style="fill: rgb(55, 71, 79); transform-origin: 133.026px 333.539px;" id="eloohfqzjivj" class="animable"></path><path d="M110.66,340.39a.83.83,0,0,0,0,1.56l7.78,4.52a3,3,0,0,0,2.67,0l8.43-4.87a.82.82,0,0,0,0-1.55l-7.78-4.52a3,3,0,0,0-2.68,0Z" style="fill: rgb(55, 71, 79); transform-origin: 120.103px 340.999px;" id="elixnwgd194ut" class="animable"></path><path d="M85.66,340.83c-.74.43-.75,1.12,0,1.55l7.78,4.52a2.92,2.92,0,0,0,2.67,0l21.53-12.42a.82.82,0,0,0,0-1.55l-7.77-4.52a3,3,0,0,0-2.68,0Z" style="fill: rgb(55, 71, 79); transform-origin: 101.647px 337.659px;" id="elwu3muzxyb6s" class="animable"></path><path d="M97.74,347.85a.83.83,0,0,0,0,1.56l7.78,4.52a3,3,0,0,0,2.67,0l8.43-4.87a.82.82,0,0,0,0-1.55L108.85,343a3,3,0,0,0-2.68,0Z" style="fill: rgb(55, 71, 79); transform-origin: 107.183px 348.464px;" id="elcc0av3k5tmp" class="animable"></path><path d="M116.11,313a.82.82,0,0,0,0,1.55l4.5,2.62a2.92,2.92,0,0,0,2.67,0l8.43-4.87a.82.82,0,0,0,0-1.55l-4.5-2.62a3,3,0,0,0-2.67,0Z" style="fill: rgb(55, 71, 79); transform-origin: 123.91px 312.655px;" id="elj702p6wx0sf" class="animable"></path><path d="M103,320.6a.82.82,0,0,0,0,1.55l4.5,2.62a3,3,0,0,0,2.67,0l8.43-4.87a.82.82,0,0,0,0-1.55l-4.5-2.62a2.92,2.92,0,0,0-2.67,0Z" style="fill: rgb(55, 71, 79); transform-origin: 110.8px 320.245px;" id="elddsmydgs8k8" class="animable"></path><path d="M257.51,269.61a.82.82,0,0,0,0,1.55l7.78,4.52a2.92,2.92,0,0,0,2.67,0l8.44-4.87c.74-.42.74-1.11,0-1.54l-7.77-4.52a3,3,0,0,0-2.68,0Z" style="fill: rgb(55, 71, 79); transform-origin: 266.956px 270.219px;" id="elmifdimmsktq" class="animable"></path><path d="M276.92,273.09a.82.82,0,0,0,0,1.55l7.78,4.52a3,3,0,0,0,2.68,0l24.16-14c.74-.43.75-1.12,0-1.55l-7.78-4.52a3,3,0,0,0-2.68,0Z" style="fill: rgb(55, 71, 79); transform-origin: 294.233px 269.125px;" id="el6pnd6rwyci5" class="animable"></path><path d="M244.82,276.94a.82.82,0,0,0,0,1.55L252.6,283a2.92,2.92,0,0,0,2.67,0l8.43-4.87a.82.82,0,0,0,0-1.55l-7.78-4.52a3,3,0,0,0-2.68,0Z" style="fill: rgb(55, 71, 79); transform-origin: 254.26px 277.534px;" id="elpd6o2pvts0e" class="animable"></path><path d="M263.89,280.61a.82.82,0,0,0,0,1.55l7.77,4.52a3,3,0,0,0,2.68,0l8.43-4.87c.74-.43.75-1.12,0-1.55L275,275.74a3,3,0,0,0-2.68,0Z" style="fill: rgb(55, 71, 79); transform-origin: 273.333px 281.21px;" id="el1l0afygxfe5" class="animable"></path><path d="M251.2,287.93a.83.83,0,0,0,0,1.56L259,294a3,3,0,0,0,2.68,0l8.43-4.86c.74-.43.75-1.12,0-1.55l-7.77-4.52a3,3,0,0,0-2.69,0Z" style="fill: rgb(55, 71, 79); transform-origin: 260.661px 288.534px;" id="elzp9rkiaj6vr" class="animable"></path></g><g id="freepik--Screen--inject-2" class="animable" style="transform-origin: 188.38px 199.695px;"><path d="M287.25,76.79l.39,137.39a8.57,8.57,0,0,1-3.89,6.73L90.58,332.44v4.42l-4.73-3h0l-.14-.08,0,0a2.8,2.8,0,0,1-1-2.4l-.4-143.27,4.87,3.08Z" style="fill: rgb(245, 245, 245); transform-origin: 185.975px 206.825px;" id="elwbw4wre9ag" class="animable"></path><path d="M88.15,175.39,283.3,62.72a2.59,2.59,0,0,1,3-.09v0l4.62,2.9-3.7,2.11v9.17L89.16,191.16l-4.87-3.08,0-6A8.54,8.54,0,0,1,88.15,175.39Z" style="fill: #000000; transform-origin: 187.605px 126.677px;" id="elvlqmgkuol9d" class="animable"></path><path d="M89.16,191.16l.4,143.27c0,2.48,1.76,3.47,3.91,2.23L288.62,224a8.57,8.57,0,0,0,3.89-6.73L292.11,74Z" style="fill: rgb(245, 245, 245); transform-origin: 190.835px 205.597px;" id="elo27ip4x2rg" class="animable"></path><path d="M286.5,70A3.75,3.75,0,0,0,284.8,73c0,1.08.77,1.52,1.71,1a3.74,3.74,0,0,0,1.7-3C288.21,69.92,287.44,69.49,286.5,70Z" style="fill: rgb(245, 245, 245); transform-origin: 286.505px 72.0022px;" id="el4d9djdkaqwp" class="animable"></path><path d="M281.54,72.89a3.77,3.77,0,0,0-1.7,3c0,1.07.77,1.52,1.71,1a3.71,3.71,0,0,0,1.7-2.94C283.25,72.78,282.49,72.35,281.54,72.89Z" style="fill: rgb(245, 245, 245); transform-origin: 281.545px 74.8828px;" id="el2wiupl6ph31" class="animable"></path><path d="M276.58,75.75a3.77,3.77,0,0,0-1.7,3c0,1.08.77,1.52,1.71,1a3.7,3.7,0,0,0,1.7-2.94C278.29,75.64,277.53,75.21,276.58,75.75Z" style="fill: rgb(245, 245, 245); transform-origin: 276.585px 77.7437px;" id="elzw146tig56p" class="animable"></path><path d="M288.17,65.8c2.16-1.25,3.91-.25,3.92,2.22l0,6-203,117.17,0-6A8.54,8.54,0,0,1,93,178.47Zm-6.62,11a3.71,3.71,0,0,0,1.7-2.94c0-1.09-.76-1.52-1.71-1a3.77,3.77,0,0,0-1.7,3c0,1.07.77,1.52,1.71,1m-5,2.86a3.7,3.7,0,0,0,1.7-2.94c0-1.09-.76-1.52-1.71-1a3.77,3.77,0,0,0-1.7,3c0,1.08.77,1.52,1.71,1M286.51,74a3.74,3.74,0,0,0,1.7-3c0-1.08-.77-1.51-1.71-1A3.75,3.75,0,0,0,284.8,73c0,1.08.77,1.52,1.71,1" style="fill: #000000; transform-origin: 190.59px 128.226px;" id="ellb9qmz082b9" class="animable"></path><g id="elu9b6tqsn89o"><g style="opacity: 0.2; transform-origin: 190.59px 128.226px;" class="animable" id="elmbjtq61cgd"><path d="M288.17,65.8c2.16-1.25,3.91-.25,3.92,2.22l0,6-203,117.17,0-6A8.54,8.54,0,0,1,93,178.47Zm-6.62,11a3.71,3.71,0,0,0,1.7-2.94c0-1.09-.76-1.52-1.71-1a3.77,3.77,0,0,0-1.7,3c0,1.07.77,1.52,1.71,1m-5,2.86a3.7,3.7,0,0,0,1.7-2.94c0-1.09-.76-1.52-1.71-1a3.77,3.77,0,0,0-1.7,3c0,1.08.77,1.52,1.71,1M286.51,74a3.74,3.74,0,0,0,1.7-3c0-1.08-.77-1.51-1.71-1A3.75,3.75,0,0,0,284.8,73c0,1.08.77,1.52,1.71,1" style="fill: rgb(255, 255, 255); transform-origin: 190.59px 128.226px;" id="elkhz9otjyq3r" class="animable"></path></g></g><g id="eldtbcyvwcrxr"><path d="M89.56,334.43a2.77,2.77,0,0,0,1,2.4v0l-4.73-3h0l-.14-.08,0,0a2.8,2.8,0,0,1-1-2.4l-.4-143.27,4.87,3.08Z" style="opacity: 0.1; transform-origin: 87.425px 262.455px;" class="animable" id="elg9otyslur6u"></path></g><g id="elo1n9eq7h1dr"><path d="M88.15,175.39,283.3,62.72a2.59,2.59,0,0,1,3-.09v0l4.6,2.9a2.76,2.76,0,0,0-2.74.29L93,178.47a8.54,8.54,0,0,0-3.88,6.72l0,6-4.87-3.08,0-6A8.54,8.54,0,0,1,88.15,175.39Z" style="fill: rgb(255, 255, 255); opacity: 0.5; transform-origin: 187.575px 126.692px;" class="animable" id="elzoqn5ju6kf"></path></g><path d="M243,138.63l7.24,14.74-5.73,3.3L243.37,154l-6.24,3.61-1.1,3.92-5.63,3.25,7.13-23Zm-4.34,13.53,3.2-1.85-1.61-3.83-1.59,5.68" style="fill: #000000; transform-origin: 240.32px 151.705px;" id="elmhz91cxciw" class="animable"></path><path d="M223.57,149.4a12.18,12.18,0,0,1,6.21-1.94L228.12,153a9.12,9.12,0,0,0-4.58,1.25c-1.63.94-2.14,1.78-2.13,2.41,0,2.26,9.09-4.87,9.11,2.1,0,3.46-2.54,7.83-7.65,10.78-2.73,1.58-5.51,2.42-7.16,2.21l1.77-5.69a9.61,9.61,0,0,0,5.43-1.39c1.57-.9,2.13-1.61,2.13-2.26,0-2.37-9.08,4.77-9.1-2.28C215.93,156.67,218.48,152.34,223.57,149.4Z" style="fill: #000000; transform-origin: 223.115px 159.621px;" id="elbm71ywxahpd" class="animable"></path><polygon points="256.61 130.75 256.65 144.7 264.07 140.42 264.09 145.36 251.12 152.85 251.06 133.96 256.61 130.75" style="fill: #000000; transform-origin: 257.575px 141.8px;" id="elubnt4st2n9j" class="animable"></polygon><polygon points="278.92 117.87 278.94 122.67 271.02 127.24 271.03 129.47 277.99 125.45 278 130.02 271.04 134.04 271.05 136.53 279.28 131.78 279.29 136.58 265.62 144.47 265.56 125.58 278.92 117.87" style="fill: #000000; transform-origin: 272.425px 131.17px;" id="elwduh111py2f" class="animable"></polygon><path d="M229.4,195.5c1.9-.29,3,.67,3,2.9,0,3.25-2.38,6.54-6.89,9.14l-9.17,5.3-.05-18.73,8.72-5c4.49-2.59,6.59-1.73,6.6,1.1A8.3,8.3,0,0,1,229.4,195.5Zm-4.32,7.89a3,3,0,0,0,1.81-2.52c0-1-.62-1.11-1.82-.42l-3.3,1.91v2.93l3.3-1.9m-3.33-8v2.8l2.55-1.48a2.88,2.88,0,0,0,1.79-2.44c0-.91-.56-1.06-1.8-.35l-2.55,1.47" style="fill: #000000; transform-origin: 224.345px 200.201px;" id="elcjbidzud4zg" class="animable"></path><polygon points="247.57 176.06 247.59 180.82 239.74 185.35 239.75 187.56 246.65 183.57 246.66 188.11 239.76 192.09 239.77 194.56 247.93 189.85 247.94 194.61 234.38 202.44 234.33 183.71 247.57 176.06" style="fill: #000000; transform-origin: 241.135px 189.25px;" id="el30p1m6xcmrh" class="animable"></polygon><path d="M256.83,170.29a12.08,12.08,0,0,1,6.16-1.92l-1.65,5.53a8.81,8.81,0,0,0-4.54,1.24c-1.61.93-2.12,1.76-2.12,2.38,0,2.25,9-4.82,9,2.09,0,3.41-2.53,7.77-7.58,10.69-2.73,1.57-5.47,2.39-7.1,2.17l1.75-5.62a9.55,9.55,0,0,0,5.39-1.38c1.55-.9,2.11-1.6,2.11-2.24,0-2.35-9,4.74-9-2.25C249.24,177.51,251.78,173.21,256.83,170.29Z" style="fill: #000000; transform-origin: 256.34px 180.438px;" id="elculc03qwe1i" class="animable"></path><polygon points="278.88 157.98 278.9 162.88 274.13 165.63 274.17 179.47 268.68 182.63 268.64 168.8 263.86 171.57 263.84 166.67 278.88 157.98" style="fill: #000000; transform-origin: 271.37px 170.305px;" id="elp7ty79at9dm" class="animable"></polygon><path d="M221,215.3c2.28-1.32,3.75-.79,3.75,1.4a6.91,6.91,0,0,1-3.73,5.72l-1.19.69v2.32L217,227l0-9.44Zm-.17,4.77a2,2,0,0,0,1.12-1.75c0-.69-.36-.9-1.12-.46l-1,.58v2.21l1-.58" style="fill: #000000; transform-origin: 220.875px 220.792px;" id="eld3au97hea5" class="animable"></path><path d="M231.78,215.59l1.73,1.92-3,1.71-1.4-1.56-.75.43v2.37l-2.76,1.6,0-9.45,4-2.28c2.29-1.33,3.75-.79,3.75,1.4A6,6,0,0,1,231.78,215.59Zm-2.38-.49a2,2,0,0,0,1.13-1.76c0-.69-.37-.89-1.13-.45l-1,.58v2.21l1-.58" style="fill: #000000; transform-origin: 229.555px 215.835px;" id="eloox2epxxgcm" class="animable"></path><path d="M238.67,204.86c2.68-1.55,4.65-.61,4.66,2.26a9.49,9.49,0,0,1-4.63,7.62c-2.68,1.55-4.64.59-4.65-2.26A9.41,9.41,0,0,1,238.67,204.86Zm0,7.3a4,4,0,0,0,1.83-3.42c0-1.47-.82-1.89-1.84-1.3a4,4,0,0,0-1.84,3.42c0,1.47.83,1.89,1.85,1.3" style="fill: #000000; transform-origin: 238.69px 209.798px;" id="el626bolx59rs" class="animable"></path><path d="M248.37,199.47c2.75-1.59,4.65-.88,4.66,2.05a8.91,8.91,0,0,1-4.63,7.4l-4.05,2.33,0-9.45Zm-.09,7a3.9,3.9,0,0,0,2-3.37c0-1.45-.81-1.78-2-1.1l-1.16.67v4.47l1.17-.67" style="fill: #000000; transform-origin: 248.69px 204.946px;" id="elec9umluctqi" class="animable"></path><path d="M262,191.62v5.19a7.72,7.72,0,0,1-4,6.79c-2.52,1.46-4,.67-4-2.16v-5.2l2.77-1.6,0,5.1c0,1.45.48,1.71,1.26,1.27a2.83,2.83,0,0,0,1.25-2.72v-5.1Z" style="fill: #000000; transform-origin: 258px 197.969px;" id="els9a036wl1a" class="animable"></path><path d="M267.49,188.22c1.61-.93,2.88-1,3.69-.24l-1.74,2.8a1.41,1.41,0,0,0-1.8-.06,4,4,0,0,0-1.92,3.47c0,1.44.78,1.91,1.93,1.25a4.83,4.83,0,0,0,1.8-2.15l1.75.79a9.29,9.29,0,0,1-3.68,4c-2.64,1.53-4.59.6-4.6-2.3A9.34,9.34,0,0,1,267.49,188.22Z" style="fill: #000000; transform-origin: 267.06px 193.135px;" id="elct8v0bgydf" class="animable"></path><polygon points="278.89 181.85 278.89 184.32 276.49 185.71 276.51 192.69 273.73 194.29 273.71 187.31 271.31 188.7 271.3 186.23 278.89 181.85" style="fill: #000000; transform-origin: 275.095px 188.07px;" id="el5y43pz3m2p5" class="animable"></polygon><g id="elch978uldqq"><g style="opacity: 0.2; transform-origin: 247.5px 172.435px;" class="animable" id="el2j1mlw0ectq"><path d="M243,138.63l7.24,14.74-5.73,3.3L243.37,154l-6.24,3.61-1.1,3.92-5.63,3.25,7.13-23Zm-4.34,13.53,3.2-1.85-1.61-3.83-1.59,5.68" style="fill: rgb(255, 255, 255); transform-origin: 240.32px 151.705px;" id="elj75z6x2d8gm" class="animable"></path><path d="M223.57,149.4a12.18,12.18,0,0,1,6.21-1.94L228.12,153a9.12,9.12,0,0,0-4.58,1.25c-1.63.94-2.14,1.78-2.13,2.41,0,2.26,9.09-4.87,9.11,2.1,0,3.46-2.54,7.83-7.65,10.78-2.73,1.58-5.51,2.42-7.16,2.21l1.77-5.69a9.61,9.61,0,0,0,5.43-1.39c1.57-.9,2.13-1.61,2.13-2.26,0-2.37-9.08,4.77-9.1-2.28C215.93,156.67,218.48,152.34,223.57,149.4Z" style="fill: rgb(255, 255, 255); transform-origin: 223.115px 159.621px;" id="eld7ah21z5e8v" class="animable"></path><polygon points="256.61 130.75 256.65 144.7 264.07 140.42 264.09 145.36 251.12 152.85 251.06 133.96 256.61 130.75" style="fill: rgb(255, 255, 255); transform-origin: 257.575px 141.8px;" id="elhtjxb7bzevg" class="animable"></polygon><polygon points="278.92 117.87 278.94 122.67 271.02 127.24 271.03 129.47 277.99 125.45 278 130.02 271.04 134.04 271.05 136.53 279.28 131.78 279.29 136.58 265.62 144.47 265.56 125.58 278.92 117.87" style="fill: rgb(255, 255, 255); transform-origin: 272.425px 131.17px;" id="el8abpw2pzdjt" class="animable"></polygon><path d="M229.4,195.5c1.9-.29,3,.67,3,2.9,0,3.25-2.38,6.54-6.89,9.14l-9.17,5.3-.05-18.73,8.72-5c4.49-2.59,6.59-1.73,6.6,1.1A8.3,8.3,0,0,1,229.4,195.5Zm-4.32,7.89a3,3,0,0,0,1.81-2.52c0-1-.62-1.11-1.82-.42l-3.3,1.91v2.93l3.3-1.9m-3.33-8v2.8l2.55-1.48a2.88,2.88,0,0,0,1.79-2.44c0-.91-.56-1.06-1.8-.35l-2.55,1.47" style="fill: rgb(255, 255, 255); transform-origin: 224.345px 200.201px;" id="el3duxsphtt8a" class="animable"></path><polygon points="247.57 176.06 247.59 180.82 239.74 185.35 239.75 187.56 246.65 183.57 246.66 188.11 239.76 192.09 239.77 194.56 247.93 189.85 247.94 194.61 234.38 202.44 234.33 183.71 247.57 176.06" style="fill: rgb(255, 255, 255); transform-origin: 241.135px 189.25px;" id="elb3t13c7vgwl" class="animable"></polygon><path d="M256.83,170.29a12.08,12.08,0,0,1,6.16-1.92l-1.65,5.53a8.81,8.81,0,0,0-4.54,1.24c-1.61.93-2.12,1.76-2.12,2.38,0,2.25,9-4.82,9,2.09,0,3.41-2.53,7.77-7.58,10.69-2.73,1.57-5.47,2.39-7.1,2.17l1.75-5.62a9.55,9.55,0,0,0,5.39-1.38c1.55-.9,2.11-1.6,2.11-2.24,0-2.35-9,4.74-9-2.25C249.24,177.51,251.78,173.21,256.83,170.29Z" style="fill: rgb(255, 255, 255); transform-origin: 256.34px 180.438px;" id="eliftsi3dfcv" class="animable"></path><polygon points="278.88 157.98 278.9 162.88 274.13 165.63 274.17 179.47 268.68 182.63 268.64 168.8 263.86 171.57 263.84 166.67 278.88 157.98" style="fill: rgb(255, 255, 255); transform-origin: 271.37px 170.305px;" id="elyra8omlrwea" class="animable"></polygon><path d="M221,215.3c2.28-1.32,3.75-.79,3.75,1.4a6.91,6.91,0,0,1-3.73,5.72l-1.19.69v2.32L217,227l0-9.44Zm-.17,4.77a2,2,0,0,0,1.12-1.75c0-.69-.36-.9-1.12-.46l-1,.58v2.21l1-.58" style="fill: rgb(255, 255, 255); transform-origin: 220.875px 220.792px;" id="eloqexbdo2hvd" class="animable"></path><path d="M231.78,215.59l1.73,1.92-3,1.71-1.4-1.56-.75.43v2.37l-2.76,1.6,0-9.45,4-2.28c2.29-1.33,3.75-.79,3.75,1.4A6,6,0,0,1,231.78,215.59Zm-2.38-.49a2,2,0,0,0,1.13-1.76c0-.69-.37-.89-1.13-.45l-1,.58v2.21l1-.58" style="fill: rgb(255, 255, 255); transform-origin: 229.555px 215.835px;" id="elq0i6ah09h6m" class="animable"></path><path d="M238.67,204.86c2.68-1.55,4.65-.61,4.66,2.26a9.49,9.49,0,0,1-4.63,7.62c-2.68,1.55-4.64.59-4.65-2.26A9.41,9.41,0,0,1,238.67,204.86Zm0,7.3a4,4,0,0,0,1.83-3.42c0-1.47-.82-1.89-1.84-1.3a4,4,0,0,0-1.84,3.42c0,1.47.83,1.89,1.85,1.3" style="fill: rgb(255, 255, 255); transform-origin: 238.69px 209.798px;" id="eletox7mptdoj" class="animable"></path><path d="M248.37,199.47c2.75-1.59,4.65-.88,4.66,2.05a8.91,8.91,0,0,1-4.63,7.4l-4.05,2.33,0-9.45Zm-.09,7a3.9,3.9,0,0,0,2-3.37c0-1.45-.81-1.78-2-1.1l-1.16.67v4.47l1.17-.67" style="fill: rgb(255, 255, 255); transform-origin: 248.69px 204.946px;" id="el1td8q13sw9c" class="animable"></path><path d="M262,191.62v5.19a7.72,7.72,0,0,1-4,6.79c-2.52,1.46-4,.67-4-2.16v-5.2l2.77-1.6,0,5.1c0,1.45.48,1.71,1.26,1.27a2.83,2.83,0,0,0,1.25-2.72v-5.1Z" style="fill: rgb(255, 255, 255); transform-origin: 258px 197.969px;" id="elnjgyq3n6tse" class="animable"></path><path d="M267.49,188.22c1.61-.93,2.88-1,3.69-.24l-1.74,2.8a1.41,1.41,0,0,0-1.8-.06,4,4,0,0,0-1.92,3.47c0,1.44.78,1.91,1.93,1.25a4.83,4.83,0,0,0,1.8-2.15l1.75.79a9.29,9.29,0,0,1-3.68,4c-2.64,1.53-4.59.6-4.6-2.3A9.34,9.34,0,0,1,267.49,188.22Z" style="fill: rgb(255, 255, 255); transform-origin: 267.06px 193.135px;" id="el8ps3dnhvbpx" class="animable"></path><polygon points="278.89 181.85 278.89 184.32 276.49 185.71 276.51 192.69 273.73 194.29 273.71 187.31 271.31 188.7 271.3 186.23 278.89 181.85" style="fill: rgb(255, 255, 255); transform-origin: 275.095px 188.07px;" id="elg6p4xfzw1ou" class="animable"></polygon></g></g></g><g id="freepik--Target--inject-2" class="animable animator-hidden" style="transform-origin: 110.105px 72.1523px;"><path d="M123.53,37.42l1.08-1.85-6.89-4.08h0c-5.78-3.38-13.79-2.94-22.62,2.16C77.6,43.76,63.41,68.35,63.46,88.46c0,9.72,3.39,16.63,8.82,20.05h0l.43.26.19.11,6.72,4,1.13-1.95c4.37.08,9.32-1.3,14.56-4.32C112.81,96.5,127,71.91,127,51.81,126.94,45.93,125.7,41.09,123.53,37.42Z" style="fill: #000000; transform-origin: 95.2299px 71.0974px;" id="elkej7v3o9ip" class="animable"></path><g id="elwg16clvjq2c"><path d="M123.53,37.42l1.08-1.85-6.89-4.08h0c-5.78-3.38-13.79-2.94-22.62,2.16C77.6,43.76,63.41,68.35,63.46,88.46c0,9.72,3.39,16.63,8.82,20.05h0l.43.26.19.11,6.72,4,1.13-1.95c4.37.08,9.32-1.3,14.56-4.32C112.81,96.5,127,71.91,127,51.81,126.94,45.93,125.7,41.09,123.53,37.42Z" style="opacity: 0.3; transform-origin: 95.2299px 71.0974px;" class="animable" id="el14cgyjrvm6u"></path></g><g id="ellpktn2y5a4i"><ellipse cx="102" cy="74.16" rx="9.58" ry="5.55" style="fill: #000000; transform-origin: 102px 74.16px; transform: rotate(-59.8265deg);" class="animable" id="el35c9vgok13r"></ellipse></g><path d="M101.92,44.85c14.08-8.13,25.54-1.6,25.59,14.59s-11.34,35.9-25.43,44S76.54,105.08,76.5,88.89,87.83,53,101.92,44.85Zm.14,51.45c10.63-6.13,19.25-21.06,19.21-33.26s-8.7-17.16-19.33-11-19.24,21-19.21,33.27,8.71,17.15,19.33,11" style="fill: rgb(255, 255, 255); transform-origin: 102.005px 74.1425px;" id="eliaav22ffp9" class="animable"></path><path d="M101.9,37.68c17.5-10.1,31.79-2,31.85,18.15s-14.14,44.7-31.65,54.81-31.78,2-31.84-18.15S84.4,47.79,101.9,37.68Zm.18,65.79c14.09-8.13,25.48-27.85,25.43-44S116,36.72,101.92,44.85,76.45,72.7,76.5,88.89,88,111.6,102.08,103.47" style="fill: #000000; transform-origin: 102.005px 74.1622px;" id="elgx6wciva9wl" class="animable"></path><path d="M102,59.18C109.15,55,115,58.37,115,66.64S109.23,85,102,89.14,89,89.94,89,81.69,94.77,63.33,102,59.18ZM102,82a15,15,0,0,0,6.78-11.74c0-4.31-3.08-6-6.82-3.89A15,15,0,0,0,95.2,78.09c0,4.3,3.07,6,6.82,3.89" style="fill: rgb(255, 255, 255); transform-origin: 102px 74.1504px;" id="elp6ebrjd8mo" class="animable"></path><path d="M101.94,52c10.63-6.14,19.3-1.2,19.33,11s-8.58,27.13-19.21,33.26-19.29,1.19-19.33-11S91.31,58.15,101.94,52Zm.1,37.12c7.19-4.16,13-14.25,13-22.5S109.15,55,102,59.18,89,73.42,89,81.69,94.86,93.28,102,89.14" style="fill: #000000; transform-origin: 102px 74.1269px;" id="eleygbzyipmjd" class="animable"></path><polygon points="136.41 92.42 145.93 97.95 156.75 98.59 147.23 93.06 136.41 92.42" style="fill: #000000; transform-origin: 146.58px 95.505px;" id="elu9nadna6uqo" class="animable"></polygon><polygon points="136.41 92.42 136.41 93.66 145.93 99.19 145.93 97.95 136.41 92.42" style="fill: #000000; transform-origin: 141.17px 95.805px;" id="elc06uxcw4vak" class="animable"></polygon><polygon points="156.75 98.59 156.75 99.82 145.93 99.19 145.93 97.95 156.75 98.59" style="fill: #000000; transform-origin: 151.34px 98.885px;" id="el7n3c1uqrf2l" class="animable"></polygon><g id="elq2esh06xvt"><g style="opacity: 0.2; transform-origin: 146.58px 95.505px;" class="animable" id="elap8rztdqu8"><polygon points="136.41 92.42 145.93 97.95 156.75 98.59 147.23 93.06 136.41 92.42" id="el4njhmw968g" class="animable" style="transform-origin: 146.58px 95.505px;"></polygon></g></g><g id="elkk3f0xm453p"><polygon points="136.41 92.42 136.41 93.66 145.93 99.19 145.93 97.95 136.41 92.42" style="opacity: 0.4; transform-origin: 141.17px 95.805px;" class="animable" id="elmb3e24xeb1b"></polygon></g><g id="elfkn19y4wyfh"><polygon points="156.75 98.59 156.75 99.82 145.93 99.19 145.93 97.95 156.75 98.59" style="opacity: 0.3; transform-origin: 151.34px 98.885px;" class="animable" id="elpdjrua7igy"></polygon></g><path d="M149.71,103.89l1.62-2.79-48.27-28h0a.74.74,0,0,0-.84,0,2.52,2.52,0,0,0-1.14,2,.8.8,0,0,0,.33.73h0Z" style="fill: rgb(69, 90, 100); transform-origin: 126.203px 88.4296px;" id="elnozm3s3lupj" class="animable"></path><path d="M150.53,101.19c.62-.36,1.14-.07,1.14.65a2.52,2.52,0,0,1-1.14,2c-.63.37-1.14.07-1.14-.65A2.49,2.49,0,0,1,150.53,101.19Z" style="fill: rgb(69, 90, 100); transform-origin: 150.53px 102.517px;" id="els7geqcenf3" class="animable"></path><g id="elfse8ni8y1rh"><g style="opacity: 0.3; transform-origin: 150.53px 102.517px;" class="animable" id="ele3of5dh9xzk"><path d="M150.53,101.19c.62-.36,1.14-.07,1.14.65a2.52,2.52,0,0,1-1.14,2c-.63.37-1.14.07-1.14-.65A2.49,2.49,0,0,1,150.53,101.19Z" style="fill: rgb(255, 255, 255); transform-origin: 150.53px 102.517px;" id="ely2t2pu9vvte" class="animable"></path></g></g><polygon points="134.42 93.57 135.48 99.84 145 105.37 143.94 99.1 134.42 93.57" style="fill: #000000; transform-origin: 139.71px 99.47px;" id="el17z76wrc5nw" class="animable"></polygon><g id="elk9q6y3c58r"><g style="opacity: 0.2; transform-origin: 139.71px 99.47px;" class="animable" id="elno2el1bgjvh"><polygon points="134.42 93.57 135.48 99.84 145 105.37 143.94 99.1 134.42 93.57" id="ell3t78ymyh0o" class="animable" style="transform-origin: 139.71px 99.47px;"></polygon></g></g><polygon points="134.42 93.57 135.48 99.84 135.48 101.08 134.42 94.81 134.42 93.57" style="fill: #000000; transform-origin: 134.95px 97.325px;" id="elcqwjv5wabsg" class="animable"></polygon><polygon points="145 105.37 145 106.61 135.48 101.08 135.48 99.84 145 105.37" style="fill: #000000; transform-origin: 140.24px 103.225px;" id="eliulo6uhchj9" class="animable"></polygon><g id="ell77woeod13l"><polygon points="134.42 93.57 135.48 99.84 135.48 101.08 134.42 94.81 134.42 93.57" style="opacity: 0.4; transform-origin: 134.95px 97.325px;" class="animable" id="eltkhcluuld2m"></polygon></g><g id="eltqljh62nu1"><polygon points="145 105.37 145 106.61 135.48 101.08 135.48 99.84 145 105.37" style="opacity: 0.3; transform-origin: 140.24px 103.225px;" class="animable" id="elolzsul8xo"></polygon></g></g><g id="freepik--device-1--inject-2" class="animable" style="transform-origin: 145.37px 288.178px;"><path d="M186.38,191.49h0c-.51-1.78-4.13-5.18-7.74-5.11a3.26,3.26,0,0,0-1,.2l-70,39.85a6.81,6.81,0,0,0-3.39,5.82v151.5c0,3.86,4.45,7.54,8.63,5.77l0,0a1.53,1.53,0,0,0,.27-.11l70-39.91a6.69,6.69,0,0,0,3.38-5.82V192.22A1.64,1.64,0,0,0,186.38,191.49Z" style="fill: #000000; transform-origin: 145.39px 288.178px;" id="ely452cn6dsy" class="animable"></path><g id="elrlr8kxw5y6m"><path d="M186.38,191.49h0c-.51-1.78-4.13-5.18-7.74-5.11a3.26,3.26,0,0,0-1,.2l-70,39.85a6.81,6.81,0,0,0-3.39,5.82v151.5c0,3.86,4.45,7.54,8.63,5.77l0,0a1.53,1.53,0,0,0,.27-.11l70-39.91a6.69,6.69,0,0,0,3.38-5.82V192.22A1.64,1.64,0,0,0,186.38,191.49Z" style="fill: rgb(255, 255, 255); opacity: 0.3; transform-origin: 145.39px 288.178px;" class="animable" id="el6yyfw2673os"></path></g><path d="M114,248.27a3.36,3.36,0,0,1,1.7-2.92l65-37a1.67,1.67,0,0,1,2.5,1.45V332a3.37,3.37,0,0,1-1.69,2.92l-65,37.05a1.68,1.68,0,0,1-2.51-1.45Z" style="fill: rgb(69, 90, 100); transform-origin: 148.6px 290.159px;" id="elav558opgqw7" class="animable"></path><g id="elccb517sd2l"><path d="M104.21,232.25v151.5c0,3.86,4.45,7.54,8.63,5.77l0,0a1.67,1.67,0,0,1-2.24-1.56V236.44a6.68,6.68,0,0,1,1.14-3.7l-6.86-3.43A6.73,6.73,0,0,0,104.21,232.25Z" style="opacity: 0.3; transform-origin: 108.525px 309.643px;" class="animable" id="el29vv06q9cp9"></path></g><g id="elr0sw56lipx7"><path d="M178.65,186.38a3.26,3.26,0,0,0-1,.2l-70,39.85a6.67,6.67,0,0,0-2.69,2.88l6.86,3.43a6.54,6.54,0,0,1,2.25-2.12l70-39.85a1.66,1.66,0,0,1,2.32.72h0C185.88,189.71,182.26,186.31,178.65,186.38Z" style="fill: rgb(255, 255, 255); opacity: 0.1; transform-origin: 145.675px 209.559px;" class="animable" id="el3snst2t7gu5"></path></g><path d="M157.23,215.79c.49-.29.9-.07.9.5a2,2,0,0,1-.89,1.55l-13.74,7.93c-.5.29-.89,0-.89-.52a1.92,1.92,0,0,1,.88-1.53Z" style="fill: rgb(38, 50, 56); transform-origin: 150.37px 220.774px;" id="eld0aohbyyy3c" class="animable"></path><path d="M140,225.76c.49-.29.89-.06.89.5a2,2,0,0,1-.88,1.55c-.5.28-.9.05-.9-.51A1.93,1.93,0,0,1,140,225.76Z" style="fill: rgb(38, 50, 56); transform-origin: 140px 226.782px;" id="el7wuub8cynl2" class="animable"></path><path d="M148.76,214.63c1-.56,1.77-.11,1.78,1a3.94,3.94,0,0,1-1.77,3.08c-1,.57-1.8.11-1.8-1A3.91,3.91,0,0,1,148.76,214.63Z" style="fill: rgb(38, 50, 56); transform-origin: 148.755px 216.672px;" id="elc1h62b1upra" class="animable"></path><path d="M148.76,357.26c2-1.16,3.62-.24,3.63,2.06a8,8,0,0,1-3.6,6.29c-2,1.15-3.67.21-3.67-2.09A8,8,0,0,1,148.76,357.26Z" style="fill: rgb(38, 50, 56); transform-origin: 148.755px 361.43px;" id="elpc87ssxrd8" class="animable"></path></g><g id="freepik--Icons--inject-2" class="animable" style="transform-origin: 158.325px 267.869px;"><path d="M197.89,180.06h0l-2.14-1.14h0a1,1,0,0,0-1-.07l-36.87,21a1.91,1.91,0,0,0-1,1.65v43.77a1,1,0,0,0,.61.88h0l2.16,1.16h0a1,1,0,0,0,.91,0l36.87-21a1.91,1.91,0,0,0,1-1.65V180.91A.94.94,0,0,0,197.89,180.06Z" style="fill: #000000; transform-origin: 177.655px 213.084px;" id="elsfs0x4kyw1" class="animable"></path><g id="elmxv2rdndtgh"><path d="M197.89,180.06h0l-2.14-1.14h0a1,1,0,0,0-1-.07l-36.87,21a1.91,1.91,0,0,0-1,1.65v43.77a1,1,0,0,0,.61.88h0l2.16,1.16h0a1,1,0,0,0,.91,0l36.87-21a1.91,1.91,0,0,0,1-1.65V180.91A.94.94,0,0,0,197.89,180.06Z" style="fill: rgb(255, 255, 255); opacity: 0.6; transform-origin: 177.655px 213.084px;" class="animable" id="el02a6cf23xhmg"></path></g><g id="elb1efq16xtlq"><path d="M156.88,201.49v43.77a1,1,0,0,0,.61.88h0l2.16,1.16a.92.92,0,0,1-.47-.81V202.71a1.85,1.85,0,0,1,.15-.74l-2.26-1.3A1.9,1.9,0,0,0,156.88,201.49Z" style="fill: #000000; opacity: 0.3; transform-origin: 158.265px 223.985px;" class="animable" id="elbjif0sa7t8d"></path></g><g id="elily25t255b"><path d="M195.75,178.92h0a1,1,0,0,0-1-.07l-36.87,21a1.93,1.93,0,0,0-.77.83l2.26,1.3a1.93,1.93,0,0,1,.81-.91l36.87-21a.92.92,0,0,1,.88,0h0Z" style="fill: rgb(255, 255, 255); opacity: 0.4; transform-origin: 177.52px 190.364px;" class="animable" id="eljg8rj8x4l3o"></path></g><path d="M182.28,195.38c.52-.3,1.09-.61,1.68-.9s1.18-.57,1.73-.79l0,5.16a2.22,2.22,0,0,0-.53.19l-.67.36a4,4,0,0,0-1.19,1.1,2.72,2.72,0,0,0-.51,1.63v1.5l2.9-1.67,0,5.53-2.9,1.67,0,19.2-7.15,4.13-.06-19.19-2.46,1.42,0-5.53,2.47-1.43V206a15.55,15.55,0,0,1,.33-3.36,8.76,8.76,0,0,1,1.11-2.72,10.26,10.26,0,0,1,2-2.34A20.7,20.7,0,0,1,182.28,195.38Z" style="fill: rgb(255, 255, 255); transform-origin: 179.405px 213.09px;" id="el0s2gsgt9xn7" class="animable"></path><path d="M147,230h0l-2.15-1.14h0a.94.94,0,0,0-1-.07l-36.87,21a1.92,1.92,0,0,0-1,1.66v43.77a1,1,0,0,0,.61.88h0l2.16,1.16h0a.93.93,0,0,0,.9,0l36.87-21a1.89,1.89,0,0,0,1-1.65V230.87A.94.94,0,0,0,147,230Z" style="fill: #000000; transform-origin: 126.75px 263.027px;" id="el7c6mwomygio" class="animable"></path><g id="elvgq7xdnekd"><path d="M147,230h0l-2.15-1.14h0a.94.94,0,0,0-1-.07l-36.87,21a1.92,1.92,0,0,0-1,1.66v43.77a1,1,0,0,0,.61.88h0l2.16,1.16h0a.93.93,0,0,0,.9,0l36.87-21a1.89,1.89,0,0,0,1-1.65V230.87A.94.94,0,0,0,147,230Z" style="fill: rgb(255, 255, 255); opacity: 0.6; transform-origin: 126.75px 263.027px;" class="animable" id="elq82oggg4w2e"></path></g><g id="elrqizt97jt7"><path d="M106,251.45v43.77a1,1,0,0,0,.61.88h0l2.16,1.16a.94.94,0,0,1-.47-.82V252.67a1.86,1.86,0,0,1,.16-.74l-2.26-1.3A1.9,1.9,0,0,0,106,251.45Z" style="fill: #000000; opacity: 0.3; transform-origin: 107.385px 273.945px;" class="animable" id="elbap9d24rfm9"></path></g><g id="el494sfxnvc06"><path d="M144.82,228.88h0a.94.94,0,0,0-1-.07l-36.87,21a1.89,1.89,0,0,0-.77.84l2.26,1.3a1.91,1.91,0,0,1,.8-.91l36.87-21a1,1,0,0,1,.88,0h0Z" style="fill: rgb(255, 255, 255); opacity: 0.4; transform-origin: 126.585px 240.324px;" class="animable" id="elcfuxzkxle1"></path></g><polygon points="120.72 256.7 139.93 258.35 120.8 282.13 120.72 256.7" style="fill: rgb(255, 255, 255); transform-origin: 130.325px 269.415px;" id="elh3t9of9yll" class="animable"></polygon><path d="M210.14,238.85h0L208,237.71h0a.94.94,0,0,0-1-.07l-36.87,21a1.91,1.91,0,0,0-1,1.65v43.77a.94.94,0,0,0,.61.88h0l2.16,1.16h0a.9.9,0,0,0,.9,0l36.87-21a1.89,1.89,0,0,0,1-1.65V239.7A.94.94,0,0,0,210.14,238.85Z" style="fill: #000000; transform-origin: 189.9px 271.874px;" id="el4e3fzjdginm" class="animable"></path><g id="elziboa76g1di"><path d="M210.14,238.85h0L208,237.71h0a.94.94,0,0,0-1-.07l-36.87,21a1.91,1.91,0,0,0-1,1.65v43.77a.94.94,0,0,0,.61.88h0l2.16,1.16h0a.9.9,0,0,0,.9,0l36.87-21a1.89,1.89,0,0,0,1-1.65V239.7A.94.94,0,0,0,210.14,238.85Z" style="fill: rgb(255, 255, 255); opacity: 0.6; transform-origin: 189.9px 271.874px;" class="animable" id="eledwzjev4j05"></path></g><g id="el7skfa29k0z2"><path d="M169.14,260.28v43.77a.94.94,0,0,0,.61.88h0l2.16,1.16a.94.94,0,0,1-.47-.81V261.5a1.89,1.89,0,0,1,.16-.74l-2.26-1.3A1.9,1.9,0,0,0,169.14,260.28Z" style="fill: #000000; opacity: 0.3; transform-origin: 170.525px 282.775px;" class="animable" id="elgur35xtrqkn"></path></g><g id="elytmpij7yxqr"><path d="M208,237.71h0a.94.94,0,0,0-1-.07l-36.87,21a1.87,1.87,0,0,0-.77.83l2.26,1.3a2,2,0,0,1,.8-.91l36.87-21a1,1,0,0,1,.88,0h0Z" style="fill: rgb(255, 255, 255); opacity: 0.4; transform-origin: 189.765px 249.149px;" class="animable" id="elzptl3uo2ao"></path></g><path d="M199.19,259.22l0,0c.92-.5,1.66-.06,1.65,1a3.73,3.73,0,0,1-1.67,2.87l0,0a1,1,0,0,1-1.64-1A3.71,3.71,0,0,1,199.19,259.22Z" style="fill: rgb(255, 255, 255); transform-origin: 199.168px 261.183px;" id="el7762g8inasm" class="animable"></path><path d="M204.93,257.1a9.06,9.06,0,0,0,.23,1.06q0,7.47,0,14.93a8.16,8.16,0,0,0-.2,1.13,16.31,16.31,0,0,1-5.12,9c-.36.32-.73.53-1.09.88l-12.94,7.47a4.19,4.19,0,0,0-.89.29c-2.7.7-4.44-.26-5.23-2.9a5,5,0,0,0-.23-1q0-7.5,0-15c.09-.1.06-.18.07-.26a12.85,12.85,0,0,1,.81-3.29,15.13,15.13,0,0,1,6.29-7.85c1.58-.93,3.15-1.84,4.73-2.75l6.58-3.79a7.59,7.59,0,0,1,1.77-.79C202.4,253.5,204.14,254.46,204.93,257.1Zm-2,16.26q0-6.45,0-12.89a5.17,5.17,0,0,0-.26-1.78c-.73-1.93-2.5-2.34-4.7-1.07l-4.75,2.74-6.49,3.75a8,8,0,0,0-1.68,1.27,10.58,10.58,0,0,0-3.26,7.23q0,6.51,0,13c0,1.93.68,3.09,2,3.45a4,4,0,0,0,2.93-.66l1.88-1.09,3.73-2.15q2.79-1.61,5.57-3.22a8.36,8.36,0,0,0,1.73-1.29,10.62,10.62,0,0,0,3.26-7.29" style="fill: rgb(255, 255, 255); transform-origin: 192.31px 273.037px;" id="elyqmg2a6gt3j" class="animable"></path><path d="M192.31,265.4c3.64-2.09,6.63-.38,6.64,3.79a14.62,14.62,0,0,1-6.6,11.43c-3.64,2.1-6.63.39-6.64-3.79A14.64,14.64,0,0,1,192.31,265.4Zm4.36,5.14c0-2.74-1.9-3.87-4.32-2.53l-.08.05A9.57,9.57,0,0,0,188,275.5c0,2.75,1.93,3.86,4.34,2.51l0,0a9.58,9.58,0,0,0,4.29-7.44" style="fill: rgb(255, 255, 255); transform-origin: 192.33px 273.013px;" id="elqp33qpxqqab" class="animable"></path><path d="M160.19,289.63h0l-2.15-1.14h0a.94.94,0,0,0-1-.07l-36.87,21a1.89,1.89,0,0,0-1,1.65v43.78a.92.92,0,0,0,.6.87h0l2.16,1.16h0a1,1,0,0,0,.91,0l36.87-21a1.91,1.91,0,0,0,1-1.65V290.48A.94.94,0,0,0,160.19,289.63Z" style="fill: #000000; transform-origin: 139.94px 322.649px;" id="elcdx8u0g30ug" class="animable"></path><g id="el82ilmn2733w"><path d="M160.19,289.63h0l-2.15-1.14h0a.94.94,0,0,0-1-.07l-36.87,21a1.89,1.89,0,0,0-1,1.65v43.78a.92.92,0,0,0,.6.87h0l2.16,1.16h0a1,1,0,0,0,.91,0l36.87-21a1.91,1.91,0,0,0,1-1.65V290.48A.94.94,0,0,0,160.19,289.63Z" style="fill: rgb(255, 255, 255); opacity: 0.6; transform-origin: 139.94px 322.649px;" class="animable" id="el1y8pzbmpcwp"></path></g><g id="el7hk333w9m74"><path d="M119.19,311.05v43.78a.92.92,0,0,0,.6.87h0l2.16,1.16a1,1,0,0,1-.47-.82V312.28a1.85,1.85,0,0,1,.15-.74l-2.25-1.3A1.89,1.89,0,0,0,119.19,311.05Z" style="fill: #000000; opacity: 0.3; transform-origin: 120.57px 333.55px;" class="animable" id="elt0y29y4f64r"></path></g><g id="eldt70nep8nhd"><path d="M158.05,288.49h0a.94.94,0,0,0-1-.07l-36.87,21a1.84,1.84,0,0,0-.77.84l2.25,1.3a1.88,1.88,0,0,1,.81-.91l36.87-21a1,1,0,0,1,.88,0h0Z" style="fill: rgb(255, 255, 255); opacity: 0.4; transform-origin: 139.815px 299.934px;" class="animable" id="el77cgvr1r065"></path></g><path d="M147.89,307.53a4.11,4.11,0,0,1,3.9-.49.43.43,0,0,0,.47,0l.21-.16a24.76,24.76,0,0,0,3.23-3.36,14.54,14.54,0,0,1-2.33,5c.34-.27.67-.52,1-.8s.7-.61,1-.93.66-.66,1-1l.06,0c-.45.88-.89,1.77-1.37,2.63-.39.69-.84,1.34-1.25,2a1.06,1.06,0,0,0-.17.51,32.46,32.46,0,0,1-4,15.33,33.59,33.59,0,0,1-8.21,10.51,28.68,28.68,0,0,1-4,2.85,13.72,13.72,0,0,1-8.55,2.11l-.14-.05A14.23,14.23,0,0,0,130,341a17.73,17.73,0,0,0,3.14-2.3,25.28,25.28,0,0,0,3.94-4.56c-2.61,1.25-4.36.76-5.33-1.5a9.54,9.54,0,0,0,1.11-.55,8.54,8.54,0,0,0,1.35-1,8.28,8.28,0,0,1-1.38.14,3.08,3.08,0,0,1-1.26-.31,2.81,2.81,0,0,1-1-.83,4,4,0,0,1-.61-1.27,13.78,13.78,0,0,1-.28-1.65c.48-.07.88-.09,1.29-.19a6.65,6.65,0,0,0,1.25-.5c-1.37-.41-2.21-1.48-2.41-3.32a9.34,9.34,0,0,1,.73-4.43c3.09,2.38,7,2.42,11.77.05,0-.37-.09-.69-.11-1a11.76,11.76,0,0,1,2.8-7.69A10.21,10.21,0,0,1,147.89,307.53Z" style="fill: rgb(255, 255, 255); transform-origin: 142.585px 322.65px;" id="el69azfj3h6qe" class="animable"></path></g><g id="freepik--Megaphone--inject-2" class="animable animator-hidden" style="transform-origin: 270.605px 371.983px;"><path d="M233.11,407.58l3.43-2a4.3,4.3,0,0,0,2.15-3.72V360.7L231,365.3l-7.73-4.46v41a4.3,4.3,0,0,0,2.15,3.72l3.43,2A4.29,4.29,0,0,0,233.11,407.58Z" style="fill: #000000; transform-origin: 230.98px 384.418px;" id="elnr16t0kjrn" class="animable"></path><g id="el5opid26zdgl"><path d="M238.69,360.7v41.18a4.3,4.3,0,0,1-2.15,3.72l-3.43,2a4.35,4.35,0,0,1-2.15.57V365.3Z" style="fill: rgb(255, 255, 255); opacity: 0.1; transform-origin: 234.825px 384.435px;" class="animable" id="el2p8v4th0jpq"></path></g><g id="el0xw8g85vz1br"><path d="M231,365.3v42.85a4.35,4.35,0,0,1-2.15-.57l-3.43-2a4.3,4.3,0,0,1-2.15-3.72v-41Z" style="fill: rgb(255, 255, 255); opacity: 0.3; transform-origin: 227.135px 384.505px;" class="animable" id="elqu0xsi91hm"></path></g><path d="M224.72,313.92l-.16-.1,0,0c-2.63-1.49-6.26-1.26-10.26,1-8,4.63-14.49,15.85-14.47,25.06,0,4.52,1.6,7.72,4.15,9.25L224,360.54,243.53,325Zm-23.31,25a21,21,0,0,1,.14-2.34,21,21,0,0,0-.14,2.34,14.85,14.85,0,0,0,.16,2.17A14.85,14.85,0,0,1,201.41,339Z" style="fill: #000000; transform-origin: 221.68px 336.708px;" id="elc8y31fadjh4" class="animable"></path><g id="el7uos3dd9g6q"><path d="M224.72,313.92l-.16-.1,0,0c-2.63-1.49-6.26-1.26-10.26,1-8,4.63-14.49,15.85-14.47,25.06,0,4.52,1.6,7.72,4.15,9.25L224,360.54,243.53,325Zm-23.31,25a21,21,0,0,1,.14-2.34,21,21,0,0,0-.14,2.34,14.85,14.85,0,0,0,.16,2.17A14.85,14.85,0,0,1,201.41,339Z" style="fill: rgb(255, 255, 255); opacity: 0.3; transform-origin: 221.68px 336.708px;" class="animable" id="ela4t18715huf"></path></g><path d="M245.47,320.34l-.2-.13-.05,0c-3.33-1.9-7.93-1.6-13,1.32-10.15,5.87-18.36,20.08-18.33,31.75,0,5.73,2,9.78,5.26,11.72,32.41,23.29,52,58.77,52,58.77l46.49-89C300.77,338.52,269,334.41,245.47,320.34Z" style="fill: #000000; transform-origin: 265.765px 371.391px;" id="elqfpvix64w0s" class="animable"></path><g id="elm8fe7zqzam"><path d="M245.47,320.34l-.2-.13-.05,0c-3.33-1.9-7.93-1.6-13,1.32-10.15,5.87-18.36,20.08-18.33,31.75,0,5.73,2,9.78,5.26,11.72,32.41,23.29,52,58.77,52,58.77l46.49-89C300.77,338.52,269,334.41,245.47,320.34Z" style="fill: rgb(255, 255, 255); opacity: 0.5; transform-origin: 265.765px 371.391px;" class="animable" id="elu3opoihyz9"></path></g><path d="M273.34,397.25a48.26,48.26,0,0,0-.36,5.83,38.45,38.45,0,0,0,.39,5.41,38.45,38.45,0,0,1-.39-5.41A48.26,48.26,0,0,1,273.34,397.25Z" style="fill: rgb(69, 90, 100); transform-origin: 273.175px 402.87px;" id="el26gsbvauwv5" class="animable"></path><path d="M332.59,349.49a18.05,18.05,0,0,0-1.74-1.95l-.12-.1a14.89,14.89,0,0,0-1.86-1.5c-.34-.24-.7-.46-1.07-.67a15.78,15.78,0,0,0-4.77-1.76,18.46,18.46,0,0,0-4-.34,22.32,22.32,0,0,0-2.88.26,25,25,0,0,0-3,.66c-.51.15-1,.31-1.55.49a33.17,33.17,0,0,0-3.19,1.28c-1.08.5-2.18,1.06-3.29,1.7a51,51,0,0,0-8,5.8c-1,.9-2,1.84-3,2.83s-1.95,2-2.88,3.07c-.47.53-.93,1.07-1.39,1.61a77.08,77.08,0,0,0-6.28,8.78c-.76,1.24-1.48,2.5-2.17,3.77s-1.35,2.57-2,3.88-1.19,2.62-1.73,3.95a68,68,0,0,0-3.19,10c-.31,1.34-.57,2.67-.78,4-.11.66-.2,1.32-.28,2a48.26,48.26,0,0,0-.36,5.83,38.45,38.45,0,0,0,.39,5.41c.17,1.13.39,2.2.65,3.23a27.17,27.17,0,0,0,1,2.93,24.15,24.15,0,0,0,1.23,2.61,20.41,20.41,0,0,0,1.5,2.28,15.71,15.71,0,0,0,10.87,6.19,19,19,0,0,0,2.74.13,22.47,22.47,0,0,0,2.89-.26,25.28,25.28,0,0,0,3-.66c.51-.15,1-.31,1.55-.49a36.29,36.29,0,0,0,6.48-3,58.28,58.28,0,0,0,15.31-13.31c.45-.55.9-1.11,1.34-1.67.88-1.13,1.74-2.29,2.56-3.48s1.62-2.4,2.38-3.63c6.46-10.51,10.5-22.61,10.47-33.44a33.16,33.16,0,0,0-1.48-10.14A21,21,0,0,0,332.59,349.49Z" style="fill: #000000; transform-origin: 305.241px 384.515px;" id="eluut5ykxwhzr" class="animable"></path><g id="eltp51sqkn23"><path d="M332.59,349.49a18.05,18.05,0,0,0-1.74-1.95l-.12-.1a14.89,14.89,0,0,0-1.86-1.5c-.34-.24-.7-.46-1.07-.67a15.78,15.78,0,0,0-4.77-1.76,18.46,18.46,0,0,0-4-.34,22.32,22.32,0,0,0-2.88.26,25,25,0,0,0-3,.66c-.51.15-1,.31-1.55.49a33.17,33.17,0,0,0-3.19,1.28c-1.08.5-2.18,1.06-3.29,1.7a51,51,0,0,0-8,5.8c-1,.9-2,1.84-3,2.83s-1.95,2-2.88,3.07c-.47.53-.93,1.07-1.39,1.61a77.08,77.08,0,0,0-6.28,8.78c-.76,1.24-1.48,2.5-2.17,3.77s-1.35,2.57-2,3.88-1.19,2.62-1.73,3.95a68,68,0,0,0-3.19,10c-.31,1.34-.57,2.67-.78,4-.11.66-.2,1.32-.28,2a48.26,48.26,0,0,0-.36,5.83,38.45,38.45,0,0,0,.39,5.41c.17,1.13.39,2.2.65,3.23a27.17,27.17,0,0,0,1,2.93,24.15,24.15,0,0,0,1.23,2.61,20.41,20.41,0,0,0,1.5,2.28,15.71,15.71,0,0,0,10.87,6.19,19,19,0,0,0,2.74.13,22.47,22.47,0,0,0,2.89-.26,25.28,25.28,0,0,0,3-.66c.51-.15,1-.31,1.55-.49a36.29,36.29,0,0,0,6.48-3,58.28,58.28,0,0,0,15.31-13.31c.45-.55.9-1.11,1.34-1.67.88-1.13,1.74-2.29,2.56-3.48s1.62-2.4,2.38-3.63c6.46-10.51,10.5-22.61,10.47-33.44a33.16,33.16,0,0,0-1.48-10.14A21,21,0,0,0,332.59,349.49Z" style="opacity: 0.5; transform-origin: 305.241px 384.515px;" class="animable" id="el6199wv9nuls"></path></g><polygon points="286.09 355.96 302.88 365.97 287.41 392.28 268.94 382.33 286.09 355.96" style="fill: #000000; transform-origin: 285.91px 374.12px;" id="elm8t2haszzy" class="animable"></polygon><g id="el0g0ansdha8df"><polygon points="286.09 355.96 302.88 365.97 287.41 392.28 268.94 382.33 286.09 355.96" style="opacity: 0.3; transform-origin: 285.91px 374.12px;" class="animable" id="eleyw6u1koox5"></polygon></g><path d="M304.13,367.17a5.34,5.34,0,0,0-.59-.66l0,0a4.31,4.31,0,0,0-.62-.51l-.36-.23a5.27,5.27,0,0,0-1.61-.59,6.13,6.13,0,0,0-1.37-.12,8.33,8.33,0,0,0-1,.09,8.22,8.22,0,0,0-1,.23l-.52.16a10.54,10.54,0,0,0-1.08.43c-.36.17-.73.36-1.11.58a17.54,17.54,0,0,0-2.7,2c-.35.3-.69.62-1,.95s-.65.68-1,1l-.47.54a27.29,27.29,0,0,0-2.11,3c-.26.42-.5.84-.74,1.27s-.45.87-.66,1.31-.4.88-.58,1.33a22.78,22.78,0,0,0-1.07,3.38c-.11.45-.2.9-.27,1.34l-.09.67a16.53,16.53,0,0,0-.12,2,11.72,11.72,0,0,0,.13,1.82c.06.38.13.74.22,1.09a8.84,8.84,0,0,0,.32,1,7.89,7.89,0,0,0,.41.88,8.56,8.56,0,0,0,.51.77,5.33,5.33,0,0,0,3.66,2.08,7,7,0,0,0,.92.05,8.3,8.3,0,0,0,1-.09,10.41,10.41,0,0,0,1-.22l.52-.17a12,12,0,0,0,2.18-1,19.53,19.53,0,0,0,5.16-4.49l.46-.56c.29-.38.58-.77.86-1.17s.54-.81.8-1.23a22.27,22.27,0,0,0,3.53-11.27,11.1,11.1,0,0,0-.5-3.42A7,7,0,0,0,304.13,367.17Z" style="fill: #000000; transform-origin: 294.9px 379.044px;" id="el7ovlnk07s8n" class="animable"></path><path d="M331.12,340.59l-.4-.23c.14.07.26.16.4.24Z" style="fill: #000000; transform-origin: 330.92px 340.48px;" id="el9dq1ybp6u44" class="animable"></path><path d="M268.94,405.41c-.06-23,16.1-51,36.09-62.5,10-5.76,19-6.33,25.6-2.61L323,335.8h0c-6.58-3.77-15.66-3.21-25.67,2.57-20,11.54-36.15,39.53-36.08,62.5,0,11.09,3.84,19,10,22.88h0l.43.25.39.23,7.26,4.27h0C272.92,424.67,269,416.7,268.94,405.41Z" style="fill: #000000; transform-origin: 295.94px 380.954px;" id="elp3layl8mc9" class="animable"></path><g id="el1dwoy2ymxgb"><path d="M268.94,405.41c-.06-23,16.1-51,36.09-62.5,10-5.76,19-6.33,25.6-2.61L323,335.8h0c-6.58-3.77-15.66-3.21-25.67,2.57-20,11.54-36.15,39.53-36.08,62.5,0,11.09,3.84,19,10,22.88h0l.43.25.39.23,7.26,4.27h0C272.92,424.67,269,416.7,268.94,405.41Z" style="fill: rgb(255, 255, 255); opacity: 0.3; transform-origin: 295.94px 380.954px;" class="animable" id="el6puperrk39o"></path></g><path d="M331.12,340.6c-.14-.08-.26-.17-.4-.24l-.09-.06c-6.57-3.72-15.62-3.15-25.6,2.61-20,11.55-36.15,39.53-36.09,62.5,0,11.29,4,19.26,10.35,23.09,6.59,4,15.8,3.49,26-2.38,20-11.54,36.15-39.53,36.09-62.51C341.32,352.4,337.42,344.46,331.12,340.6Zm-4.28,58.78c-.76,1.23-1.55,2.45-2.38,3.63s-1.68,2.35-2.56,3.48c-.44.56-.89,1.12-1.34,1.67a58.28,58.28,0,0,1-15.31,13.31,36.29,36.29,0,0,1-6.48,3c-.52.18-1,.34-1.55.49a25.28,25.28,0,0,1-3,.66,22.47,22.47,0,0,1-2.89.26,19,19,0,0,1-2.74-.13,15.71,15.71,0,0,1-10.87-6.19,20.41,20.41,0,0,1-1.5-2.28,24.15,24.15,0,0,1-1.23-2.61,27.17,27.17,0,0,1-1-2.93c-.26-1-.48-2.1-.65-3.23a38.45,38.45,0,0,1-.39-5.41,48.26,48.26,0,0,1,.36-5.83c.08-.66.17-1.32.28-2,.21-1.33.47-2.66.78-4a68,68,0,0,1,3.19-10c.54-1.33,1.11-2.65,1.73-3.95s1.27-2.6,2-3.88,1.41-2.53,2.17-3.77a77.08,77.08,0,0,1,6.28-8.78c.46-.54.92-1.08,1.39-1.61.93-1.06,1.9-2.09,2.88-3.07s2-1.93,3-2.83a51,51,0,0,1,8-5.8c1.11-.64,2.21-1.2,3.29-1.7a33.17,33.17,0,0,1,3.19-1.28c.52-.18,1-.34,1.55-.49a25,25,0,0,1,3-.66,22.32,22.32,0,0,1,2.88-.26,18.46,18.46,0,0,1,4,.34,15.78,15.78,0,0,1,4.77,1.76c.37.21.73.43,1.07.67a14.89,14.89,0,0,1,1.86,1.5l.12.1a18.05,18.05,0,0,1,1.74,1.95,21,21,0,0,1,3.24,6.31,33.16,33.16,0,0,1,1.48,10.14h0C337.34,376.77,333.3,388.87,326.84,399.38Z" style="fill: #000000; transform-origin: 305.16px 384.52px;" id="el1vkcayx0lfb" class="animable"></path></g><g id="freepik--Character--inject-2" class="animable animator-hidden" style="transform-origin: 378.822px 271.584px;"><path d="M393.37,188.64l1.42.22a18.66,18.66,0,0,1,14.91,12.41l9.92,28.92-11.72,5.38-9.85-21.74Z" style="fill: rgb(69, 90, 100); transform-origin: 406.495px 212.105px;" id="el72t7ia53ra" class="animable"></path><g id="eldomlrfc6ow"><path d="M393.37,188.64l1.42.22a18.66,18.66,0,0,1,14.91,12.41l9.92,28.92-11.72,5.38-9.85-21.74Z" style="fill: rgb(255, 255, 255); opacity: 0.1; transform-origin: 406.495px 212.105px;" class="animable" id="el3x7e2sfpx8q"></path></g><path d="M413.24,384.4a9.72,9.72,0,0,1-7.28,2.67,22.06,22.06,0,0,1-7.7-1.94c-2.46-1-5.55-3.85-8.21-3.79a65.19,65.19,0,0,1-7.79-.53,40.36,40.36,0,0,1,1.11-10.55l12.42-.33c3.36,4.6,9.88,8.42,14.82,9.85a4.35,4.35,0,0,1,3.07,3.27s0,.05,0,.08A5.54,5.54,0,0,1,413.24,384.4Z" style="fill: rgb(69, 90, 100); transform-origin: 397.963px 378.508px;" id="elp5foh6hyti" class="animable"></path><path d="M390.05,381.34c2.66-.06,5.75,2.78,8.21,3.79a22.06,22.06,0,0,0,7.7,1.94,9.72,9.72,0,0,0,7.28-2.67,5.54,5.54,0,0,0,.43-1.27s0-.05,0-.08a4,4,0,0,1,0,1.66,5.56,5.56,0,0,1-.43,1.26,9.69,9.69,0,0,1-7.28,2.68,22.06,22.06,0,0,1-7.7-1.94c-2.46-1-5.55-3.85-8.21-3.79a57.93,57.93,0,0,1-7.67-.45c-.06-.55-.1-1.11-.12-1.66A65.19,65.19,0,0,0,390.05,381.34Z" style="fill: rgb(38, 50, 56); transform-origin: 398.009px 384.738px;" id="el9wqpkrpt1xm" class="animable"></path><path d="M355,385.56a18.33,18.33,0,0,0,.37,3.77,8.75,8.75,0,0,0,3.45,5.5,11.1,11.1,0,0,0,5.47,1.46,12.08,12.08,0,0,0,5-.52,5.68,5.68,0,0,0,2.94-2.4.2.2,0,0,0,0,.07,5.25,5.25,0,0,1-3.38,3.51,12.08,12.08,0,0,1-5,.52,11.14,11.14,0,0,1-5.48-1.46,8.74,8.74,0,0,1-3.44-5.5,17.6,17.6,0,0,1-.38-3.77,6.34,6.34,0,0,0-2-4.6c-.31-.3-.61-.6-.88-.91a2.29,2.29,0,0,1-.54-1.65c0-.23.05-.46.08-.68.45.53,1.53,1.8,1.8,2.05A6.4,6.4,0,0,1,355,385.56Z" style="fill: rgb(38, 50, 56); transform-origin: 361.677px 388.219px;" id="ely76euqr18sp" class="animable"></path><path d="M364.47,372.43a13.74,13.74,0,0,0,1,7.64,29.23,29.23,0,0,0,4.05,6.65,19.67,19.67,0,0,1,2.12,3.09,5.61,5.61,0,0,1,.6,3.56,5.68,5.68,0,0,1-2.94,2.4,12.08,12.08,0,0,1-5,.52,11.1,11.1,0,0,1-5.47-1.46,8.75,8.75,0,0,1-3.45-5.5,18.33,18.33,0,0,1-.37-3.77,6.4,6.4,0,0,0-2-4.61c-.27-.25-1.35-1.52-1.8-2.05a13.78,13.78,0,0,1,1.86-5.34Z" style="fill: rgb(69, 90, 100); transform-origin: 361.761px 384.394px;" id="el7xbhkht2c8y" class="animable"></path><path d="M401.18,249.67l-1,70.89-3.34,49.62c-8.47,5.35-14.6,1-14.6,1-3.21-23.5-3.65-38-1.9-47.74l-1.61-38.26-4.82,39.72-8.1,48.68c-8.69,5.63-14.82,0-14.82,0,0-18-1.6-38.17,3.36-51.16a298.8,298.8,0,0,1,2.34-72Z" style="fill: #000000; transform-origin: 375.962px 312.876px;" id="elpve1jbhq4ek" class="animable"></path><g id="el7cgrx9j35ou"><path d="M401.18,249.67l-1,70.89-3.34,49.62c-8.47,5.35-14.6,1-14.6,1-3.21-23.5-3.65-38-1.9-47.74l-1.61-38.26-4.82,39.72-8.1,48.68c-8.69,5.63-14.82,0-14.82,0,0-18-1.6-38.17,3.36-51.16a298.8,298.8,0,0,1,2.34-72Z" style="opacity: 0.3; transform-origin: 375.962px 312.876px;" class="animable" id="elev4q386hl3m"></path></g><g id="elxgnu6ask21"><path d="M401.18,249.67l-1,70.89-3.34,49.62c-8.47,5.35-14.6,1-14.6,1-3.21-23.5-3.65-38-1.9-47.74l-1.61-38.26-4.82,39.72-8.1,48.68c-8.69,5.63-14.82,0-14.82,0,0-18-1.6-38.17,3.36-51.16a298.8,298.8,0,0,1,2.34-72Z" style="fill: rgb(255, 255, 255); opacity: 0.1; transform-origin: 375.962px 312.876px;" class="animable" id="elkvzszpwb49"></path></g><g id="elrb206k5v36"><path d="M380.47,270.55l-1.78,14.6.76,17.92,3.26-29.45c7.55-3,8.54-7.12,8.54-7.12A23.2,23.2,0,0,1,380.47,270.55Z" style="opacity: 0.3; transform-origin: 384.97px 284.785px;" class="animable" id="el12nywxhvwu6e"></path></g><path d="M385.08,187.77l8.29.87c6.79,6,10.29,18.55,8.83,32.42a245.75,245.75,0,0,0-1,28.61c-18.4,13.44-41.61,3.65-44.53.73l1.36-17a11.68,11.68,0,0,0-.93-5.6c-1.74-4-4.84-12-5.25-18.13a32.06,32.06,0,0,1,3.36-15.84l12-5.26Z" style="fill: rgb(69, 90, 100); transform-origin: 377.172px 222.176px;" id="elk7j16adpis" class="animable"></path><g id="elq9dovri3vxd"><g style="opacity: 0.1; transform-origin: 377.172px 222.176px;" class="animable" id="elfdf3cia08w"><path d="M385.08,187.77l8.29.87c6.79,6,10.29,18.55,8.83,32.42a245.75,245.75,0,0,0-1,28.61c-18.4,13.44-41.61,3.65-44.53.73l1.36-17a11.68,11.68,0,0,0-.93-5.6c-1.74-4-4.84-12-5.25-18.13a32.06,32.06,0,0,1,3.36-15.84l12-5.26Z" id="elwquxy1oqx8" class="animable" style="transform-origin: 377.172px 222.176px;"></path></g></g><path d="M387.38,199.85a89.66,89.66,0,0,1,6.83,32.38l-3.42,7.33-5.34-7a277.42,277.42,0,0,0-.65-32.23Z" style="fill: rgb(69, 90, 100); transform-origin: 389.505px 219.705px;" id="elrixzszr663" class="animable"></path><path d="M387.67,193.83a24.72,24.72,0,0,1-.29,6,4.8,4.8,0,0,1-2.58.47,21.1,21.1,0,0,1-4.14-5l4.14-1.49Z" style="fill: rgb(69, 90, 100); transform-origin: 384.198px 197.066px;" id="eltmy1s2wlez8" class="animable"></path><g id="elffsy4r6hrbd"><g style="opacity: 0.6; transform-origin: 387.435px 216.685px;" class="animable" id="ele31mknuu06v"><path d="M387.38,199.85a89.66,89.66,0,0,1,6.83,32.38l-3.42,7.33-5.34-7a277.42,277.42,0,0,0-.65-32.23Z" style="fill: rgb(255, 255, 255); transform-origin: 389.505px 219.705px;" id="elzq4alvtrc6" class="animable"></path><path d="M387.67,193.83a24.72,24.72,0,0,1-.29,6,4.8,4.8,0,0,1-2.58.47,21.1,21.1,0,0,1-4.14-5l4.14-1.49Z" style="fill: rgb(255, 255, 255); transform-origin: 384.198px 197.066px;" id="elg35dj9r771a" class="animable"></path></g></g><path d="M384.8,193.83c-3.56,1.31-6.74,7.66-6.74,7.66-9.37-8-10.83-12.92-10.83-12.92a18.86,18.86,0,0,1,4.54-4.8Z" style="fill: rgb(69, 90, 100); transform-origin: 376.015px 192.63px;" id="elrk63qsyxvwc" class="animable"></path><path d="M384.8,193.83c2.73.07,5.14,3.87,5.14,3.87.43-6.65-5.14-11.76-5.14-11.76Z" style="fill: rgb(69, 90, 100); transform-origin: 387.382px 191.82px;" id="el1yptpsy2pox" class="animable"></path><g id="elytmowu26n8"><g style="opacity: 0.35; transform-origin: 378.597px 192.63px;" class="animable" id="elr1ko23c7p3l"><g id="elsgq3i9b1vbj"><path d="M384.8,193.83c-3.56,1.31-6.74,7.66-6.74,7.66-9.37-8-10.83-12.92-10.83-12.92a18.86,18.86,0,0,1,4.54-4.8Z" style="fill: rgb(255, 255, 255); opacity: 0.1; transform-origin: 376.015px 192.63px;" class="animable" id="eloeoa6vx5alg"></path></g><g id="elobuys6i71vj"><path d="M384.8,193.83c2.73.07,5.14,3.87,5.14,3.87.43-6.65-5.14-11.76-5.14-11.76Z" style="fill: rgb(255, 255, 255); opacity: 0.1; transform-origin: 387.382px 191.82px;" class="animable" id="eleiykfmizgb"></path></g></g></g><path d="M367.23,157a7.37,7.37,0,0,1,4.72-2.55l24.66,2.33c2.85,6.11.58,10.16.58,10.16.38,9.32.7,15.25-3.34,17.22a18.65,18.65,0,0,1-9,1.27,21.28,21.28,0,0,1-8.26-2.23l-.13-.07a7.06,7.06,0,0,1-3.54-4.71,39.58,39.58,0,0,1-.85-5.52,22,22,0,0,0-.34-3.15,5.62,5.62,0,0,0-1.38-2.79,3.18,3.18,0,0,0-2.85-1,2.18,2.18,0,0,0-.5.2C366.28,162,366.08,158.44,367.23,157Z" style="fill: rgb(55, 71, 79); transform-origin: 382.23px 169.992px;" id="elis3j8yxll2" class="animable"></path><path d="M376.26,157.7a8.73,8.73,0,0,1-.33,5.24,38.75,38.75,0,0,0-1.56,5.09,8.32,8.32,0,0,0,.68,5.14,6,6,0,0,0,3.93,3.19c2.64.57,5.23-1,7.89-1.52a10.92,10.92,0,0,1,7.43,1.33,1.28,1.28,0,0,0,1.94-1c.31-5.37.31-13.78-.48-17.74Z" style="fill: rgb(255, 168, 167); transform-origin: 385.33px 166.956px;" id="elj29a9c6notk" class="animable"></path><polygon points="373.74 181.69 373.74 181.68 373.75 181.69 373.74 181.69" style="fill: rgb(255, 168, 167); transform-origin: 373.745px 181.685px;" id="el5pkbigegqht" class="animable"></polygon><path d="M371.59,175.57l.11,4.78a7.48,7.48,0,0,1-2.3-3.61A3.32,3.32,0,0,0,371.59,175.57Z" style="fill: rgb(55, 71, 79); transform-origin: 370.55px 177.96px;" id="elyvc5fjt3kis" class="animable"></path><path d="M395.35,152.84l3.06-2.16a6.66,6.66,0,0,1-1.17,6.12,9.71,9.71,0,0,1-5.41,3.23,20.18,20.18,0,0,1-6.35.29,45.42,45.42,0,0,1-9.18-1.7,7.22,7.22,0,0,1-3.6-1.92,4.88,4.88,0,0,1-.19-5.7,7.11,7.11,0,0,1,5.07-3,19.08,19.08,0,0,1,6.1.49,18.23,18.23,0,0,0,6.1.44,6.34,6.34,0,0,0,4.92-3.3C396.43,148.49,395.35,152.84,395.35,152.84Z" style="fill: rgb(55, 71, 79); transform-origin: 385.193px 153.039px;" id="elzo0ppr8fjop" class="animable"></path><polygon points="387.61 167.22 392.11 172.75 387.98 174.23 387.61 167.22" style="fill: rgb(242, 143, 143); transform-origin: 389.86px 170.725px;" id="elb6brqvudm3p" class="animable"></polygon><path d="M384.2,177l3.48,1.09a2.12,2.12,0,0,1-2.34,1.09A2,2,0,0,1,384.2,177Z" style="fill: rgb(242, 143, 143); transform-origin: 385.924px 178.115px;" id="el5za9enu5z8s" class="animable"></path><g id="elwygnzygrpbp"><path d="M384.2,177l3.48,1.09a2.12,2.12,0,0,1-2.34,1.09A2,2,0,0,1,384.2,177Z" style="opacity: 0.3; transform-origin: 385.924px 178.115px;" class="animable" id="el5yz6ew8a2dj"></path></g><path d="M386.47,179.08a1.91,1.91,0,0,1-1.13.07,1.76,1.76,0,0,1-1.13-1.59,2,2,0,0,1,1.34.25A2.06,2.06,0,0,1,386.47,179.08Z" style="fill: rgb(242, 143, 143); transform-origin: 385.34px 178.369px;" id="eljcft9fx18oq" class="animable"></path><path d="M381.49,168.43a1.24,1.24,0,1,0,1.17-1.32A1.26,1.26,0,0,0,381.49,168.43Z" style="fill: rgb(38, 50, 56); transform-origin: 382.728px 168.348px;" id="elqr5xuwx6fur" class="animable"></path><path d="M391.83,167.46a1.23,1.23,0,1,0,1.16-1.32A1.24,1.24,0,0,0,391.83,167.46Z" style="fill: rgb(38, 50, 56); transform-origin: 393.057px 167.368px;" id="eloxgqr6xonad" class="animable"></path><path d="M392.76,162.41l2.84,1.77a1.8,1.8,0,0,0-.64-1.93A2.07,2.07,0,0,0,392.76,162.41Z" style="fill: rgb(38, 50, 56); transform-origin: 394.215px 163.094px;" id="elewx641d6xoj" class="animable"></path><path d="M382.19,162.84l-2.63,2.07a1.81,1.81,0,0,1,.43-2A2.05,2.05,0,0,1,382.19,162.84Z" style="fill: rgb(38, 50, 56); transform-origin: 380.807px 163.732px;" id="el0gfckvowrss" class="animable"></path><path d="M365.28,168a3.4,3.4,0,0,1,1.71-1.81,2.18,2.18,0,0,1,.5-.2,3.18,3.18,0,0,1,2.85,1,5.62,5.62,0,0,1,1.38,2.79,22,22,0,0,1,.34,3.15,40,40,0,0,0,.88,5.65,7,7,0,0,0,3.52,4.58l.12.07a21.28,21.28,0,0,0,8.26,2.23v8.41l-11.66-6.9a2.83,2.83,0,0,1-1.38-2.38c0-1.35-.06-2.83-.09-4.2l-.11-4.78a3.32,3.32,0,0,1-2.19,1.17,2.93,2.93,0,0,1-1.15-.06,4.35,4.35,0,0,1-2.57-2.23,8.33,8.33,0,0,1-.82-3.39A7,7,0,0,1,365.28,168Z" style="fill: rgb(255, 168, 167); transform-origin: 374.84px 179.91px;" id="elk1su233cwxn" class="animable"></path><g id="el7orswu0y00i"><path d="M374.92,183a7.85,7.85,0,0,1-1.44-3,7,7,0,0,0,3,3.13l.12.07a21.28,21.28,0,0,0,8.26,2.23v2.14a20.81,20.81,0,0,1-4.88-1A10.93,10.93,0,0,1,374.92,183Z" style="opacity: 0.2; transform-origin: 379.17px 183.785px;" class="animable" id="eldjosaxi7nsb"></path></g><path d="M327,223.76l-4.4-2.18a7.75,7.75,0,0,1-3.28-3.06L318,216.16a9.66,9.66,0,0,0-4-3.75,33.09,33.09,0,0,1-7-4.64h0a3.64,3.64,0,0,0,.57,4.57,25,25,0,0,0,2.86,2.29l-2.11.54a7.51,7.51,0,0,1-4.59-.28l-6-2.35a1.05,1.05,0,0,0-1.41,1.16,24,24,0,0,0,3,7.56,9,9,0,0,0,6.12,4.3c3.08.58,6.06,1,7.75,1.28a9.41,9.41,0,0,1,2.79.86l6.46,3.21Z" style="fill: rgb(255, 168, 167); transform-origin: 311.652px 219.34px;" id="elnwbysawfyz" class="animable"></path><path d="M331.2,230.53a11,11,0,0,0,.77-5.73l8.25,3.92a170.19,170.19,0,0,0,3.5-18.28c1-8.32.77-13.91,11.47-16.61,0,0,7.21,11.89,2.08,22.41,0,7.75-2.27,26.17-9.93,29.13-6.35,2.45-10.83-3.59-20.51-9.84A11,11,0,0,0,331.2,230.53Z" style="fill: rgb(69, 90, 100); transform-origin: 342.971px 219.879px;" id="elt6eezl4cbeo" class="animable"></path><g id="elffqdgo6fw68"><path d="M331.2,230.53a11,11,0,0,0,.77-5.73l8.25,3.92a170.19,170.19,0,0,0,3.5-18.28c1-8.32.77-13.91,11.47-16.61,0,0,7.21,11.89,2.08,22.41,0,7.75-2.27,26.17-9.93,29.13-6.35,2.45-10.83-3.59-20.51-9.84A11,11,0,0,0,331.2,230.53Z" style="fill: rgb(255, 255, 255); opacity: 0.1; transform-origin: 342.971px 219.879px;" class="animable" id="elq973t5ishy"></path></g><g id="el4t08e022d34"><path d="M345.77,234.2c-.29-1.24-2.34-4.09-5.55-5.48,0,0,.24-1,.61-2.54C342.49,227,346.59,229.52,345.77,234.2Z" style="opacity: 0.2; transform-origin: 343.049px 230.19px;" class="animable" id="elg1duiex9hv5"></path></g><path d="M324.37,222.11l7.6,2.69a10.78,10.78,0,0,1-5.14,10.73,56.24,56.24,0,0,1-6.3-5S323.82,229.34,324.37,222.11Z" style="fill: rgb(69, 90, 100); transform-origin: 326.301px 228.82px;" id="elg8aqbyrq1nw" class="animable"></path><g id="elhdc23pu9okh"><path d="M413.9,213.52l-5.73,15.55.41-4.16a19,19,0,0,1,5.32-11.39Z" style="opacity: 0.2; transform-origin: 411.035px 221.295px;" class="animable" id="elu8c3obh95m"></path></g><path d="M421.8,220.7l-.19-6-3-4.52a2,2,0,0,0-3.63.42l-1.38,3.73a7.3,7.3,0,0,0,2.34,4.61A7.43,7.43,0,0,0,421.8,220.7Z" style="fill: rgb(69, 90, 100); transform-origin: 417.7px 214.982px;" id="elptdkuh8liy" class="animable"></path><path d="M415.94,219a7.3,7.3,0,0,1-2.34-4.61L407.79,230a7.07,7.07,0,0,0,.11,5.58h0a7.06,7.06,0,0,0,9.66,3.35l.77-.4a7.05,7.05,0,0,0,3.82-6.49l-.35-11.33A7.43,7.43,0,0,1,415.94,219Z" style="fill: rgb(69, 90, 100); transform-origin: 414.712px 227.052px;" id="elnr3tt8hcisd" class="animable"></path><g id="elzy4h17v2wwk"><path d="M415.94,219a7.3,7.3,0,0,1-2.34-4.61L407.79,230a7.07,7.07,0,0,0,.11,5.58h0a7.06,7.06,0,0,0,9.66,3.35l.77-.4a7.05,7.05,0,0,0,3.82-6.49l-.35-11.33A7.43,7.43,0,0,1,415.94,219Z" style="fill: rgb(255, 255, 255); opacity: 0.1; transform-origin: 414.712px 227.052px;" class="animable" id="elxojr9xoqi5"></path></g><path d="M422.66,224.86l-1.06-.61a1.36,1.36,0,0,1-.66-1.15v-4.78l2.39,1.42,2.38-1.38v4.74a1.33,1.33,0,0,1-.66,1.15l-1.06.61A1.32,1.32,0,0,1,422.66,224.86Z" style="fill: #000000; transform-origin: 423.325px 221.68px;" id="el880odu76ef5" class="animable"></path><g id="el1u5s9kiy243"><path d="M422.66,224.86l-1.06-.61a1.36,1.36,0,0,1-.66-1.15v-4.78l2.39,1.42,2.38-1.38v4.74a1.33,1.33,0,0,1-.66,1.15l-1.06.61A1.32,1.32,0,0,1,422.66,224.86Z" style="fill: rgb(255, 255, 255); opacity: 0.3; transform-origin: 423.325px 221.68px;" class="animable" id="elin333d3txe"></path></g><path d="M421.62,203.9l2.6-.46,4.79,3.42a1.81,1.81,0,0,1,.77,1.49v10a1.83,1.83,0,0,1-1.09,1.67l-3.35,1.48a1.86,1.86,0,0,1-2-.34l-2.83-2.65a1.85,1.85,0,0,1-.6-1.36v-.91a7.36,7.36,0,0,1-2.62-2.86,6.35,6.35,0,0,1-.89-3.48h0A6.37,6.37,0,0,1,421.62,203.9Z" style="fill: rgb(255, 168, 167); transform-origin: 423.088px 212.546px;" id="elhue5v1clhgi" class="animable"></path><path d="M421.78,208.25v5.55a1.67,1.67,0,0,0,1.67,1.67h0a1.66,1.66,0,0,0,1.66-1.67v-5.93l.69,1.66v4.55a2.35,2.35,0,0,1-2.35,2.35h0a2.36,2.36,0,0,1-2.36-2.35v-2.29a3.62,3.62,0,0,1-2.5,2.23C421.09,212.1,421.78,208.25,421.78,208.25Z" style="fill: rgb(242, 143, 143); transform-origin: 422.195px 212.15px;" id="el6wqu1tdojg8" class="animable"></path><path d="M418.2,184.86l-.06,0h0a3.79,3.79,0,0,0-3.79.39,11.76,11.76,0,0,0-5.35,9.26,3.8,3.8,0,0,0,1.53,3.42L418,202.1l7.2-13.14Zm-8.61,9.26a8.43,8.43,0,0,1,.05-.86,8.43,8.43,0,0,0-.05.86,5.1,5.1,0,0,0,.06.8A5.1,5.1,0,0,1,409.59,194.12Z" style="fill: #000000; transform-origin: 417.091px 193.312px;" id="el25p07vp7yfa" class="animable"></path><g id="elsgypeqztwa"><path d="M418.2,184.86l-.06,0h0a3.79,3.79,0,0,0-3.79.39,11.76,11.76,0,0,0-5.35,9.26,3.8,3.8,0,0,0,1.53,3.42L418,202.1l7.2-13.14Zm-8.61,9.26a8.43,8.43,0,0,1,.05-.86,8.43,8.43,0,0,0-.05.86,5.1,5.1,0,0,0,.06.8A5.1,5.1,0,0,1,409.59,194.12Z" style="fill: rgb(255, 255, 255); opacity: 0.3; transform-origin: 417.091px 193.312px;" class="animable" id="elcjbrr8mgjyn"></path></g><path d="M425.87,187.24l-.07-.05h0c-1.23-.7-2.93-.59-4.81.49a14.94,14.94,0,0,0-6.77,11.73c0,2.12.75,3.62,1.94,4.33,12,8.61,19.24,21.72,19.24,21.72l17.18-32.87C446.31,194,434.56,192.44,425.87,187.24Z" style="fill: #000000; transform-origin: 433.4px 206.104px;" id="el2b3nu71om12" class="animable"></path><g id="elabcvc76xk1l"><path d="M425.87,187.24l-.07-.05h0c-1.23-.7-2.93-.59-4.81.49a14.94,14.94,0,0,0-6.77,11.73c0,2.12.75,3.62,1.94,4.33,12,8.61,19.24,21.72,19.24,21.72l17.18-32.87C446.31,194,434.56,192.44,425.87,187.24Z" style="fill: rgb(255, 255, 255); opacity: 0.5; transform-origin: 433.4px 206.104px;" class="animable" id="elobz1bmjta9k"></path></g><path d="M436.17,215.66a17.58,17.58,0,0,0-.13,2.15,14,14,0,0,0,.14,2,14,14,0,0,1-.14-2A17.58,17.58,0,0,1,436.17,215.66Z" style="fill: rgb(69, 90, 100); transform-origin: 436.11px 217.735px;" id="elst0cjkiiw4" class="animable"></path><path d="M458.07,198a6.4,6.4,0,0,0-.65-.72s0,0,0,0a5.94,5.94,0,0,0-.69-.55l-.39-.25a5.86,5.86,0,0,0-1.77-.65,6.56,6.56,0,0,0-1.49-.13,7.89,7.89,0,0,0-1.07.1,9.88,9.88,0,0,0-1.12.25l-.57.17a12.72,12.72,0,0,0-1.18.48,11.66,11.66,0,0,0-1.21.63,18.54,18.54,0,0,0-3,2.14c-.38.33-.75.68-1.12,1.05s-.71.74-1.06,1.13c-.17.2-.34.39-.51.6a28,28,0,0,0-2.32,3.24c-.28.46-.55.92-.81,1.39s-.49,1-.72,1.44-.44,1-.64,1.45a26.13,26.13,0,0,0-1.18,3.71c-.11.49-.21,1-.29,1.48,0,.24-.07.49-.1.73a17.58,17.58,0,0,0-.13,2.15,14,14,0,0,0,.14,2,10.17,10.17,0,0,0,.59,2.28,8.53,8.53,0,0,0,.46,1,7.29,7.29,0,0,0,.55.85,5.85,5.85,0,0,0,4,2.29,6.72,6.72,0,0,0,1,0,8,8,0,0,0,1.07-.09,9.73,9.73,0,0,0,1.11-.25c.19,0,.39-.11.58-.18a13.6,13.6,0,0,0,2.39-1.1,21.35,21.35,0,0,0,5.66-4.92c.17-.2.33-.41.5-.62.32-.41.64-.84.94-1.28s.6-.89.88-1.34a24.47,24.47,0,0,0,3.87-12.36,12.19,12.19,0,0,0-.55-3.75A7.63,7.63,0,0,0,458.07,198Z" style="fill: #000000; transform-origin: 447.92px 210.988px;" id="el87l7mcxrxin" class="animable"></path><g id="el09k4d6230wux"><path d="M458.07,198a6.4,6.4,0,0,0-.65-.72s0,0,0,0a5.94,5.94,0,0,0-.69-.55l-.39-.25a5.86,5.86,0,0,0-1.77-.65,6.56,6.56,0,0,0-1.49-.13,7.89,7.89,0,0,0-1.07.1,9.88,9.88,0,0,0-1.12.25l-.57.17a12.72,12.72,0,0,0-1.18.48,11.66,11.66,0,0,0-1.21.63,18.54,18.54,0,0,0-3,2.14c-.38.33-.75.68-1.12,1.05s-.71.74-1.06,1.13c-.17.2-.34.39-.51.6a28,28,0,0,0-2.32,3.24c-.28.46-.55.92-.81,1.39s-.49,1-.72,1.44-.44,1-.64,1.45a26.13,26.13,0,0,0-1.18,3.71c-.11.49-.21,1-.29,1.48,0,.24-.07.49-.1.73a17.58,17.58,0,0,0-.13,2.15,14,14,0,0,0,.14,2,10.17,10.17,0,0,0,.59,2.28,8.53,8.53,0,0,0,.46,1,7.29,7.29,0,0,0,.55.85,5.85,5.85,0,0,0,4,2.29,6.72,6.72,0,0,0,1,0,8,8,0,0,0,1.07-.09,9.73,9.73,0,0,0,1.11-.25c.19,0,.39-.11.58-.18a13.6,13.6,0,0,0,2.39-1.1,21.35,21.35,0,0,0,5.66-4.92c.17-.2.33-.41.5-.62.32-.41.64-.84.94-1.28s.6-.89.88-1.34a24.47,24.47,0,0,0,3.87-12.36,12.19,12.19,0,0,0-.55-3.75A7.63,7.63,0,0,0,458.07,198Z" style="opacity: 0.5; transform-origin: 447.92px 210.988px;" class="animable" id="el1epu4tqupw6"></path></g><polygon points="440.88 200.4 447.08 204.1 441.37 213.82 434.55 210.15 440.88 200.4" style="fill: #000000; transform-origin: 440.815px 207.11px;" id="elz17fajrpzh" class="animable"></polygon><g id="elnubk3g4av"><polygon points="440.88 200.4 447.08 204.1 441.37 213.82 434.55 210.15 440.88 200.4" style="opacity: 0.3; transform-origin: 440.815px 207.11px;" class="animable" id="el3bp6b0frxpx"></polygon></g><path d="M447.55,204.54a1.7,1.7,0,0,0-.22-.24h0l-.23-.19L447,204a1.75,1.75,0,0,0-.59-.22,2.1,2.1,0,0,0-.51-.05l-.36,0a2.74,2.74,0,0,0-.37.08l-.2.06a3.2,3.2,0,0,0-.39.16,3.17,3.17,0,0,0-.41.21,6.15,6.15,0,0,0-1,.72c-.13.12-.26.23-.38.36l-.36.38c-.06.06-.11.13-.17.2a9.38,9.38,0,0,0-.78,1.09c-.1.16-.19.31-.27.47s-.17.32-.25.49-.15.32-.21.49a8.25,8.25,0,0,0-.4,1.25c0,.16-.07.33-.1.49l0,.25a6.11,6.11,0,0,0-.05.73,4.8,4.8,0,0,0,.05.67c0,.14.05.27.08.4l.12.37.15.32a2.9,2.9,0,0,0,.19.29,2,2,0,0,0,1.36.77,1.9,1.9,0,0,0,.34,0l.36,0a2.74,2.74,0,0,0,.37-.08l.2-.06a4.37,4.37,0,0,0,.8-.37,7.41,7.41,0,0,0,1.91-1.66l.17-.21.32-.43c.1-.15.2-.3.29-.45a8.25,8.25,0,0,0,1.31-4.17,4.33,4.33,0,0,0-.19-1.26A2.55,2.55,0,0,0,447.55,204.54Z" style="fill: #000000; transform-origin: 444.21px 208.858px;" id="el8fs74t2niss" class="animable"></path><path d="M457.52,194.72l-.14-.09.14.1Z" style="fill: #000000; transform-origin: 457.45px 194.68px;" id="elloagduu535j" class="animable"></path><path d="M434.55,218.68c0-8.49,5.94-18.84,13.33-23.1,3.69-2.13,7-2.34,9.46-1L454.5,193h0c-2.43-1.39-5.78-1.19-9.48,1-7.39,4.27-13.36,14.61-13.34,23.1,0,4.09,1.42,7,3.7,8.45h0l.16.09.14.09,2.69,1.57h0C436,225.79,434.56,222.85,434.55,218.68Z" style="fill: #000000; transform-origin: 444.51px 209.71px;" id="elqiix2syf8n" class="animable"></path><g id="elvwhvccw0xr"><path d="M434.55,218.68c0-8.49,5.94-18.84,13.33-23.1,3.69-2.13,7-2.34,9.46-1L454.5,193h0c-2.43-1.39-5.78-1.19-9.48,1-7.39,4.27-13.36,14.61-13.34,23.1,0,4.09,1.42,7,3.7,8.45h0l.16.09.14.09,2.69,1.57h0C436,225.79,434.56,222.85,434.55,218.68Z" style="fill: rgb(255, 255, 255); opacity: 0.3; transform-origin: 444.51px 209.71px;" class="animable" id="eleu8nszs2ubg"></path></g><path d="M457.52,194.73l-.14-.1,0,0c-2.43-1.37-5.77-1.16-9.46,1-7.39,4.26-13.36,14.61-13.33,23.1,0,4.17,1.46,7.11,3.82,8.53s5.84,1.29,9.6-.88c7.39-4.27,13.36-14.61,13.33-23.1C461.29,199.08,459.85,196.15,457.52,194.73Zm-1.58,21.72c-.28.45-.57.9-.88,1.34s-.62.87-.94,1.28c-.17.21-.33.42-.5.62a21.35,21.35,0,0,1-5.66,4.92,13.6,13.6,0,0,1-2.39,1.1c-.19.07-.39.13-.58.18a9.73,9.73,0,0,1-1.11.25,8,8,0,0,1-1.07.09,6.72,6.72,0,0,1-1,0,5.85,5.85,0,0,1-4-2.29,7.29,7.29,0,0,1-.55-.85,8.53,8.53,0,0,1-.46-1,10.17,10.17,0,0,1-.59-2.28,14,14,0,0,1-.14-2,17.58,17.58,0,0,1,.13-2.15c0-.24.06-.49.1-.73.08-.49.18-1,.29-1.48a26.13,26.13,0,0,1,1.18-3.71c.2-.49.41-1,.64-1.45s.47-1,.72-1.44.53-.93.81-1.39a28,28,0,0,1,2.32-3.24c.17-.21.34-.4.51-.6.35-.39.7-.77,1.06-1.13s.74-.72,1.12-1.05a18.54,18.54,0,0,1,3-2.14,11.66,11.66,0,0,1,1.21-.63,12.72,12.72,0,0,1,1.18-.48l.57-.17a9.88,9.88,0,0,1,1.12-.25,7.89,7.89,0,0,1,1.07-.1,6.56,6.56,0,0,1,1.49.13,5.86,5.86,0,0,1,1.77.65l.39.25a5.94,5.94,0,0,1,.69.55s0,0,0,0a6.4,6.4,0,0,1,.65.72,7.63,7.63,0,0,1,1.19,2.33,12.19,12.19,0,0,1,.55,3.75h0A24.47,24.47,0,0,1,455.94,216.45Z" style="fill: #000000; transform-origin: 447.965px 210.98px;" id="elwssm57iohz" class="animable"></path></g><g id="freepik--speech-bubbles--inject-2" class="animable animator-hidden" style="transform-origin: 266.8px 198.478px;"><path d="M304.86,270.92l-26.74,15.34a5.29,5.29,0,0,0-1.95,2,5.19,5.19,0,0,0-.67,2.55v19.46a5.15,5.15,0,0,0,7.88,4.24l4.64-2.66.42.69.07.06h0l.05,0h0c.77.5,2.11,1.23,2.42,1.38v0a.28.28,0,0,0,.35-.17L293,309h0l17.07-9.76a5.2,5.2,0,0,0,2.63-4.53V275.17C312.74,271.4,307.2,269.58,304.86,270.92Z" style="fill: #000000; transform-origin: 294.1px 292.888px;" id="elqhirqdricbe" class="animable"></path><path d="M282.76,289.43Z" style="fill: none; transform-origin: 282.76px 289.43px;" id="el9owdt5v8kju" class="animable"></path><g id="eldy4ioxruez"><path d="M288.44,312.52l.07.06h0l.05,0h0c.77.5,2.11,1.23,2.42,1.38v0a.26.26,0,0,1-.17-.12l-1.66-2.68.33-.19h0l-1.46.83Z" style="fill: rgb(255, 255, 255); opacity: 0.2; transform-origin: 289.5px 312.465px;" class="animable" id="el15kz2ovf0f8"></path></g><g id="el8s8497m9598"><path d="M281.36,291.18a5.39,5.39,0,0,1,1.4-1.75h0a4.77,4.77,0,0,1,.64-.43l26.74-15.34a1.73,1.73,0,0,1,2.6,1.51c0-3.77-5.54-5.59-7.88-4.25l-26.74,15.34a5.29,5.29,0,0,0-1.95,2Z" style="fill: rgb(255, 255, 255); opacity: 0.4; transform-origin: 294.455px 280.831px;" class="animable" id="elbu1xezqiort"></path></g><g id="elut74g8e2q4o"><path d="M280.78,313V293.52a4.17,4.17,0,0,1,0-.61,5.45,5.45,0,0,1,.54-1.73l-5.19-2.94a5.19,5.19,0,0,0-.67,2.55v19.46a5.15,5.15,0,0,0,7.88,4.24A1.74,1.74,0,0,1,280.78,313Z" style="fill: rgb(255, 255, 255); opacity: 0.2; transform-origin: 279.4px 301.757px;" class="animable" id="elyzdsls0k2rc"></path></g><path d="M294.5,293.55c.4-.24.73-.05.73.42v.21l0,6v1a1.63,1.63,0,0,1-.72,1.27l-3.64,2.09c-.4.24-.73.05-.73-.42l0-7.26a1.59,1.59,0,0,1,.74-1.26Zm-1.36,8.75a1.69,1.69,0,0,0,.76-1.32c0-.49-.34-.69-.77-.44a1.66,1.66,0,0,0-.76,1.32c0,.49.34.69.77.44" style="fill: #000000; transform-origin: 292.685px 299.045px;" id="el5071col3ip" class="animable"></path><g id="el9fhkdvvlf9r"><g style="opacity: 0.5; transform-origin: 292.685px 299.045px;" class="animable" id="el4rvb4xnmlig"><path d="M294.5,293.55c.4-.24.73-.05.73.42v.21l0,6v1a1.63,1.63,0,0,1-.72,1.27l-3.64,2.09c-.4.24-.73.05-.73-.42l0-7.26a1.59,1.59,0,0,1,.74-1.26Zm-1.36,8.75a1.69,1.69,0,0,0,.76-1.32c0-.49-.34-.69-.77-.44a1.66,1.66,0,0,0-.76,1.32c0,.49.34.69.77.44" style="fill: rgb(255, 255, 255); transform-origin: 292.685px 299.045px;" id="elu3n34qz3hjg" class="animable"></path></g></g><path d="M298.2,283.39c1.59-.92,2.86-.1,2.76,1.78l-.15,3L305,285.7c1.45-.83,1.76,1.1.78,2.46,1,.28.7,2-.19,3,.82.37.09,2.26-.91,3.05.66.27.09,2.31-1.06,3l-4.16,2.4-2.62,1.52c-.9.51-1.63.1-1.63-.93l0-6,1.66-4a16,16,0,0,0,1.31-6.09Z" style="fill: rgb(255, 255, 255); transform-origin: 300.808px 292.18px;" id="elcg0l1e0deq5" class="animable"></path><path d="M396.67,82.1,369.93,97.44a5.28,5.28,0,0,0-2.62,4.52v19.46a5.15,5.15,0,0,0,7.88,4.24l4.65-2.65.42.68a.2.2,0,0,0,.07.06h0l.05,0h0c.76.51,2.11,1.23,2.41,1.39v0a.29.29,0,0,0,.36-.18l1.71-4.85h0l17.06-9.75a5.21,5.21,0,0,0,2.63-4.53V86.34C404.55,82.58,399,80.76,396.67,82.1Z" style="fill: #000000; transform-origin: 385.93px 104.053px;" id="elv3niakn0hqg" class="animable"></path><path d="M374.58,100.6h0Z" style="fill: none; transform-origin: 374.58px 100.6px;" id="el9pt19t0bkk" class="animable"></path><g id="elu53dknhc6o"><path d="M380.26,123.69a.2.2,0,0,0,.07.06h0l.05,0h0c.76.51,2.11,1.23,2.41,1.39v0a.38.38,0,0,1-.17-.12L381,122.36l.33-.18h0l-1.46.83Z" style="fill: rgb(255, 255, 255); opacity: 0.2; transform-origin: 381.33px 123.66px;" class="animable" id="el33uigak14eq"></path></g><g id="elet7vezir45j"><path d="M373.18,102.36a5.36,5.36,0,0,1,1.39-1.75h0a7,7,0,0,1,.63-.43L402,84.83a1.74,1.74,0,0,1,2.6,1.51c0-3.76-5.54-5.58-7.88-4.24L369.93,97.44a5.1,5.1,0,0,0-1.94,2Z" style="fill: rgb(255, 255, 255); opacity: 0.4; transform-origin: 386.295px 92.0107px;" class="animable" id="el6xl189lqqjr"></path></g><g id="elce2a052001t"><path d="M372.59,124.15V104.7a4.21,4.21,0,0,1,0-.62,5.49,5.49,0,0,1,.55-1.72l-5.19-3a5.12,5.12,0,0,0-.68,2.55v19.46a5.15,5.15,0,0,0,7.88,4.24A1.73,1.73,0,0,1,372.59,124.15Z" style="fill: rgb(255, 255, 255); opacity: 0.2; transform-origin: 371.21px 112.877px;" class="animable" id="el7pu952s2ge8"></path></g><path d="M386.31,104.72c.41-.23.73,0,.74.42v7.27a1.62,1.62,0,0,1-.73,1.26l-3.64,2.1c-.4.23-.73,0-.73-.42l0-7.27a1.62,1.62,0,0,1,.73-1.26ZM385,113.48a1.68,1.68,0,0,0,.76-1.33c0-.48-.34-.68-.76-.44a1.69,1.69,0,0,0-.77,1.33c0,.49.35.68.77.44" style="fill: #000000; transform-origin: 384.5px 110.245px;" id="ell4ddsd0zy3h" class="animable"></path><g id="elbg02cxjdkzc"><g style="opacity: 0.5; transform-origin: 384.5px 110.245px;" class="animable" id="el17998pncd9o"><path d="M386.31,104.72c.41-.23.73,0,.74.42v7.27a1.62,1.62,0,0,1-.73,1.26l-3.64,2.1c-.4.23-.73,0-.73-.42l0-7.27a1.62,1.62,0,0,1,.73-1.26ZM385,113.48a1.68,1.68,0,0,0,.76-1.33c0-.48-.34-.68-.76-.44a1.69,1.69,0,0,0-.77,1.33c0,.49.35.68.77.44" style="fill: rgb(255, 255, 255); transform-origin: 384.5px 110.245px;" id="el2azvhihyunr" class="animable"></path></g></g><path d="M390,94.57c1.59-.92,2.85-.11,2.76,1.77l-.15,3,4.22-2.44c1.45-.83,1.76,1.09.79,2.45,1,.29.69,2-.2,3,.82.37.1,2.27-.91,3.06.66.27.1,2.3-1.06,3l-4.15,2.4-2.63,1.51c-.89.52-1.62.1-1.63-.92v-6l1.66-4A16.31,16.31,0,0,0,390,95.23Z" style="fill: rgb(255, 255, 255); transform-origin: 392.641px 103.367px;" id="ell4kzj7wqlqo" class="animable"></path><path d="M158.39,158.18l-26.74,15.34A5.23,5.23,0,0,0,129,178V197.5a5.15,5.15,0,0,0,7.88,4.24l4.65-2.65.42.68s0,0,.06.06h0l.05,0h0c.77.51,2.11,1.23,2.42,1.38h0a.3.3,0,0,0,.36-.18l1.71-4.85h0l17.06-9.75a5.21,5.21,0,0,0,2.63-4.53V162.42C166.27,158.66,160.73,156.83,158.39,158.18Z" style="fill: #000000; transform-origin: 147.62px 180.131px;" id="elm735vcp4zf" class="animable"></path><path d="M136.3,176.68h0Z" style="fill: none; transform-origin: 136.3px 176.68px;" id="elvfa9lioo2j" class="animable"></path><g id="elzzk6peow5j"><path d="M142,199.77s0,0,.06.06h0l.05,0h0c.77.51,2.11,1.23,2.42,1.38h0a.3.3,0,0,1-.17-.12l-1.66-2.69.33-.18h0l-1.45.83Z" style="fill: rgb(255, 255, 255); opacity: 0.2; transform-origin: 143.055px 199.715px;" class="animable" id="elpr8ue60ndjo"></path></g><g id="elnzm72wlgqd"><path d="M134.89,178.44a5.29,5.29,0,0,1,1.4-1.75h0a4.11,4.11,0,0,1,.63-.43l26.74-15.34a1.74,1.74,0,0,1,2.6,1.51c0-3.76-5.54-5.59-7.88-4.24l-26.74,15.34a5.19,5.19,0,0,0-2,2Z" style="fill: rgb(255, 255, 255); opacity: 0.4; transform-origin: 147.95px 168.094px;" class="animable" id="eldrlb99qmtof"></path></g><g id="el6d84k5ddgyg"><path d="M134.31,200.23V180.78a4.21,4.21,0,0,1,0-.62,5.39,5.39,0,0,1,.54-1.72l-5.19-2.95A5.22,5.22,0,0,0,129,178V197.5a5.15,5.15,0,0,0,7.88,4.24A1.73,1.73,0,0,1,134.31,200.23Z" style="fill: rgb(255, 255, 255); opacity: 0.2; transform-origin: 132.94px 189.007px;" class="animable" id="el7hx8qdcstqc"></path></g><path d="M148,180.8c.41-.23.73-.05.73.42v.21l0,6v1a1.58,1.58,0,0,1-.72,1.27l-3.64,2.1c-.4.23-.73,0-.73-.42l0-7.27a1.57,1.57,0,0,1,.73-1.26Zm-1.36,8.76a1.71,1.71,0,0,0,.76-1.33c0-.49-.34-.68-.77-.44a1.71,1.71,0,0,0-.76,1.33c0,.48.34.68.77.44" style="fill: #000000; transform-origin: 146.185px 186.296px;" id="eltuj7cad1whe" class="animable"></path><g id="eli3gsyngxn"><g style="opacity: 0.5; transform-origin: 146.185px 186.296px;" class="animable" id="els8d1rnhsda"><path d="M148,180.8c.41-.23.73-.05.73.42v.21l0,6v1a1.58,1.58,0,0,1-.72,1.27l-3.64,2.1c-.4.23-.73,0-.73-.42l0-7.27a1.57,1.57,0,0,1,.73-1.26Zm-1.36,8.76a1.71,1.71,0,0,0,.76-1.33c0-.49-.34-.68-.77-.44a1.71,1.71,0,0,0-.76,1.33c0,.48.34.68.77.44" style="fill: rgb(255, 255, 255); transform-origin: 146.185px 186.296px;" id="elk9sdpf3kp1i" class="animable"></path></g></g><path d="M151.73,170.65c1.59-.92,2.86-.11,2.76,1.77l-.14,3,4.22-2.44c1.45-.84,1.76,1.09.78,2.45,1,.29.7,2-.19,3,.82.37.09,2.27-.91,3.06.66.27.09,2.3-1.06,3l-4.16,2.4-2.62,1.51c-.9.52-1.63.1-1.63-.93l0-6,1.66-4a16.22,16.22,0,0,0,1.32-6.09Z" style="fill: rgb(255, 255, 255); transform-origin: 154.378px 179.446px;" id="eluli1ni1et8b" class="animable"></path></g><defs>     <filter id="active" height="200%">         <feMorphology in="SourceAlpha" result="DILATED" operator="dilate" radius="2"></feMorphology>                <feFlood flood-color="#32DFEC" flood-opacity="1" result="PINK"></feFlood>        <feComposite in="PINK" in2="DILATED" operator="in" result="OUTLINE"></feComposite>        <feMerge>            <feMergeNode in="OUTLINE"></feMergeNode>            <feMergeNode in="SourceGraphic"></feMergeNode>        </feMerge>    </filter>    <filter id="hover" height="200%">        <feMorphology in="SourceAlpha" result="DILATED" operator="dilate" radius="2"></feMorphology>                <feFlood flood-color="#ff0000" flood-opacity="0.5" result="PINK"></feFlood>        <feComposite in="PINK" in2="DILATED" operator="in" result="OUTLINE"></feComposite>        <feMerge>            <feMergeNode in="OUTLINE"></feMergeNode>            <feMergeNode in="SourceGraphic"></feMergeNode>        </feMerge>            <feColorMatrix type="matrix" values="0   0   0   0   0                0   1   0   0   0                0   0   0   0   0                0   0   0   1   0 "></feColorMatrix>    </filter></defs></svg>